<svg width="41" height="41" viewBox="0 0 41 41" fill="none" xmlns="http://www.w3.org/2000/svg">
<path fill-rule="evenodd" clip-rule="evenodd" d="M20.5 41C31.8218 41 41 31.8218 41 20.5C41 9.17816 31.8218 0 20.5 0C9.17816 0 0 9.17816 0 20.5C0 31.8218 9.17816 41 20.5 41Z" fill="#4AB45E"/>
<path fill-rule="evenodd" clip-rule="evenodd" d="M23.1084 17.2445C22.7883 17.1432 22.4202 17.0757 22.0842 17.0757C21.6681 17.0757 20.7719 17.3626 20.7719 17.9195V19.2527H22.9003V21.4971H20.7719V27.6905H18.6275V21.4971H17.5713V19.2527H18.6275V18.122C18.6275 16.4176 19.3636 15 21.14 15C21.7481 15 22.8363 15.0338 23.4284 15.2531L23.1084 17.2445Z" fill="white"/>
</svg>
