<svg width="10" height="8" viewBox="0 0 10 8" fill="none" xmlns="http://www.w3.org/2000/svg">
<path d="M3.80661 8C3.50239 8 3.21426 7.88399 3.02964 7.68397L0.530878 4.986C0.453623 4.90268 0.397223 4.80774 0.3649 4.70659C0.332578 4.60545 0.324967 4.50009 0.342503 4.39654C0.36004 4.29299 0.402379 4.19329 0.467101 4.10312C0.531823 4.01295 0.617659 3.93409 0.719701 3.87104C0.821706 3.80774 0.937997 3.7615 1.06191 3.73499C1.18582 3.70848 1.31492 3.70221 1.4418 3.71654C1.56868 3.73088 1.69086 3.76553 1.80132 3.81852C1.91178 3.87151 2.00836 3.9418 2.08552 4.02534L3.72968 5.79922L7.86351 0.374717C8.0006 0.195615 8.21903 0.0682581 8.47088 0.0205834C8.72274 -0.0270913 8.98745 0.00880839 9.20695 0.120408C9.66362 0.352429 9.80419 0.843904 9.51886 1.21765L4.63463 7.62397C4.55126 7.73382 4.43633 7.82538 4.29984 7.89071C4.16334 7.95604 4.0094 7.99316 3.85137 7.99886C3.83598 8 3.82199 8 3.80661 8Z" fill="#333333"/>
</svg>
