<svg width="10" height="10" viewBox="0 0 10 10" fill="none" xmlns="http://www.w3.org/2000/svg">
<path d="M6.06064 5.00008L9.02939 2.03133C9.17029 1.89068 9.24954 1.69982 9.24972 1.50074C9.2499 1.30166 9.17098 1.11066 9.03033 0.969768C8.88968 0.828872 8.69883 0.749618 8.49974 0.749442C8.30066 0.749267 8.10967 0.828183 7.96877 0.96883L5.00002 3.93758L2.03127 0.96883C1.89037 0.827934 1.69928 0.748779 1.50002 0.748779C1.30076 0.748779 1.10967 0.827934 0.968769 0.96883C0.827873 1.10973 0.748718 1.30082 0.748718 1.50008C0.748718 1.69934 0.827873 1.89043 0.968769 2.03133L3.93752 5.00008L0.968769 7.96883C0.827873 8.10973 0.748718 8.30082 0.748718 8.50008C0.748718 8.69934 0.827873 8.89043 0.968769 9.03133C1.10967 9.17223 1.30076 9.25138 1.50002 9.25138C1.69928 9.25138 1.89037 9.17223 2.03127 9.03133L5.00002 6.06258L7.96877 9.03133C8.10967 9.17223 8.30076 9.25138 8.50002 9.25138C8.69928 9.25138 8.89037 9.17223 9.03127 9.03133C9.17217 8.89043 9.25132 8.69934 9.25132 8.50008C9.25132 8.30082 9.17217 8.10973 9.03127 7.96883L6.06064 5.00008Z" fill="#333333"/>
</svg>
