<svg width="9" height="18" viewBox="0 0 9 18" fill="none" xmlns="http://www.w3.org/2000/svg">
<path d="M1.65891 0.836739C1.3886 0.836206 1.12665 0.930935 0.918511 1.10448C0.801367 1.2022 0.704535 1.32222 0.633558 1.45766C0.562582 1.5931 0.518856 1.74129 0.504886 1.89376C0.490916 2.04623 0.506975 2.19997 0.552145 2.34618C0.597315 2.4924 0.670706 2.62821 0.768117 2.74584L5.95092 8.98534L0.953218 15.2365C0.857121 15.3555 0.785358 15.4926 0.742054 15.6396C0.69875 15.7867 0.684759 15.9409 0.700885 16.0935C0.717011 16.246 0.762935 16.3938 0.83602 16.5284C0.909104 16.663 1.00791 16.7818 1.12675 16.8778C1.24645 16.9838 1.38662 17.0637 1.53847 17.1126C1.69033 17.1615 1.85058 17.1783 2.00918 17.1619C2.16778 17.1455 2.3213 17.0963 2.46011 17.0173C2.59891 16.9384 2.72 16.8315 2.81579 16.7032L8.40349 9.71871C8.57365 9.51042 8.66667 9.24915 8.66667 8.97952C8.66667 8.70988 8.57365 8.44861 8.40349 8.24032L2.61912 1.25581C2.50306 1.11493 2.35564 1.00357 2.18881 0.930761C2.02197 0.85795 1.84043 0.825737 1.65891 0.836739Z" fill="white"/>
</svg>
