<svg width="9" height="18" viewBox="0 0 9 18" fill="none" xmlns="http://www.w3.org/2000/svg">
<path d="M7.5071 17.1633C7.77741 17.1638 8.03937 17.0691 8.2475 16.8955C8.36465 16.7978 8.46148 16.6778 8.53246 16.5423C8.60343 16.4069 8.64716 16.2587 8.66113 16.1062C8.6751 15.9538 8.65904 15.8 8.61387 15.6538C8.5687 15.5076 8.49531 15.3718 8.3979 15.2542L3.2151 9.01466L8.2128 2.76353C8.30889 2.64445 8.38066 2.50745 8.42396 2.36038C8.46727 2.21331 8.48126 2.05907 8.46513 1.90655C8.449 1.75402 8.40308 1.6062 8.33 1.47159C8.25691 1.33698 8.15811 1.21823 8.03927 1.12216C7.91957 1.01619 7.7794 0.936256 7.62754 0.887377C7.47569 0.838498 7.31543 0.821731 7.15683 0.838127C6.99823 0.854523 6.84471 0.903729 6.70591 0.982656C6.5671 1.06158 6.44601 1.16853 6.35023 1.29678L0.762522 8.28129C0.592367 8.48958 0.499348 8.75085 0.499348 9.02048C0.499348 9.29012 0.592367 9.55139 0.762522 9.75968L6.5469 16.7442C6.66295 16.8851 6.81038 16.9964 6.97721 17.0692C7.14404 17.142 7.32558 17.1743 7.5071 17.1633Z" fill="white"/>
</svg>
