<svg width="524" height="361" viewBox="0 0 524 361" fill="none" xmlns="http://www.w3.org/2000/svg">
<g opacity="0.1">
<mask id="mask0_8_104" style="mask-type:alpha" maskUnits="userSpaceOnUse" x="0" y="0" width="524" height="361">
<path d="M523.474 332.78L488.688 360.5L0.499984 360.5L0.5 0.499977L488.413 0.499998L523.474 332.78Z" fill="url(#paint0_linear_8_104)" stroke="#6246E5"/>
</mask>
<g mask="url(#mask0_8_104)">
<path d="M236.505 453.92C167.172 453.92 110.965 397.635 110.965 328.202C110.965 258.769 167.172 202.484 236.505 202.484C305.838 202.484 362.044 258.769 362.044 328.202C362.044 397.635 305.838 453.92 236.505 453.92Z" stroke="#6246E5"/>
<path d="M249.772 458.902C172.196 458.902 109.307 395.925 109.307 318.237C109.307 240.55 172.196 177.573 249.772 177.573C327.348 177.573 390.237 240.55 390.237 318.237C390.237 395.925 327.348 458.902 249.772 458.902Z" stroke="#6246E5"/>
<path d="M260.552 463.885C175.648 463.885 106.819 394.959 106.819 309.934C106.819 224.909 175.648 155.983 260.552 155.983C345.455 155.983 414.284 224.909 414.284 309.934C414.284 394.959 345.455 463.885 260.552 463.885Z" stroke="#6246E5"/>
<path d="M276.307 467.206C184.992 467.206 110.966 393.076 110.966 301.63C110.966 210.184 184.992 136.054 276.307 136.054C367.622 136.054 441.648 210.184 441.648 301.63C441.648 393.076 367.622 467.206 276.307 467.206Z" stroke="#6246E5"/>
<path d="M291.647 470.527C194.15 470.527 115.112 391.378 115.112 293.741C115.112 196.104 194.15 116.955 291.647 116.955C389.145 116.955 468.183 196.104 468.183 293.741C468.183 391.378 389.145 470.527 291.647 470.527Z" stroke="#6246E5"/>
<path d="M309.061 474.68C201.946 474.68 115.112 387.723 115.112 280.456C115.112 173.188 201.946 86.2314 309.061 86.2314C416.175 86.2314 503.01 173.188 503.01 280.456C503.01 387.723 416.175 474.68 309.061 474.68Z" stroke="#6246E5"/>
</g>
</g>
<defs>
<linearGradient id="paint0_linear_8_104" x1="475.147" y1="256.035" x2="-0.281835" y2="0.523518" gradientUnits="userSpaceOnUse">
<stop stop-color="#747DEF"/>
<stop offset="1" stop-color="#5E3BE1"/>
</linearGradient>
</defs>
</svg>
