<svg width="41" height="41" viewBox="0 0 41 41" fill="none" xmlns="http://www.w3.org/2000/svg">
<path fill-rule="evenodd" clip-rule="evenodd" d="M20.5 41C31.8218 41 41 31.8218 41 20.5C41 9.17816 31.8218 0 20.5 0C9.17816 0 0 9.17816 0 20.5C0 31.8218 9.17816 41 20.5 41Z" fill="#4AB45E"/>
<path d="M29 15.539C28.405 15.8 27.771 15.973 27.11 16.057C27.79 15.651 28.309 15.013 28.553 14.244C27.919 14.622 27.219 14.889 26.473 15.038C25.871 14.397 25.013 14 24.077 14C22.261 14 20.799 15.474 20.799 17.281C20.799 17.541 20.821 17.791 20.875 18.029C18.148 17.896 15.735 16.589 14.114 14.598C13.831 15.089 13.665 15.651 13.665 16.256C13.665 17.392 14.25 18.399 15.122 18.982C14.595 18.972 14.078 18.819 13.64 18.578C13.64 18.588 13.64 18.601 13.64 18.614C13.64 20.208 14.777 21.532 16.268 21.837C16.001 21.91 15.71 21.945 15.408 21.945C15.198 21.945 14.986 21.933 14.787 21.889C15.212 23.188 16.418 24.143 17.852 24.174C16.736 25.047 15.319 25.573 13.785 25.573C13.516 25.573 13.258 25.561 13 25.528C14.453 26.465 16.175 27 18.032 27C24.068 27 27.368 22 27.368 17.666C27.368 17.521 27.363 17.381 27.356 17.242C28.007 16.78 28.554 16.203 29 15.539Z" fill="white"/>
</svg>
