<svg width="675" height="400" fill="none" xmlns="http://www.w3.org/2000/svg"><g clip-path="url(#clip0_30_5)"><path d="M25.13 29.272a70.43 70.43 0 00-4.782 21.818H.99v-.539c.052-.497.114-1.036.156-1.481.24-2.566.67-5.112 1.286-7.615a59.212 59.212 0 014.295-11.914.435.435 0 01.466-.28H25.13v.01zm-.591 48.744H6.759a.395.395 0 01-.426-.28 54.093 54.093 0 01-4.419-13.468 55.079 55.079 0 01-.871-6.796 2.33 2.33 0 00-.052-.228v-.539h19.014c.353 0 .332 0 .364.352.114 1.554.217 3.108.363 4.652.251 2.46.65 4.902 1.192 7.314a65.078 65.078 0 002.532 8.692c.03.104.052.187.083.3zm74.781 5.625c-.062.104-.104.187-.156.26a52.898 52.898 0 01-5.041 6.526 49.764 49.764 0 01-7.376 6.796 52.767 52.767 0 01-17.302 8.661 55.076 55.076 0 01-7.376 1.575c-.249 0-.487.083-.726.124h-.436l-.404-.259.467-.342A56.685 56.685 0 0074.995 93.4a64.799 64.799 0 005.726-9.49.404.404 0 01.435-.28h18.195l-.031.011zM81.53 51.08H56.55V29.324h19.503a.364.364 0 01.394.259 60.594 60.594 0 013.973 12.774c.445 2.284.767 4.59.965 6.91.041.56.093 1.17.145 1.813zm-.145 5.812c0 .518 0 1.036-.073 1.533-.114 1.222-.197 2.434-.374 3.647a82.005 82.005 0 01-.82 4.993 59.672 59.672 0 01-3.236 10.64.424.424 0 01-.456.321h-20.02V56.892h24.979zM50.928 29.448v21.756H26.541c0-.55 0-1.098.103-1.637.125-1.212.229-2.445.415-3.657.301-1.844.623-3.698 1.038-5.532a56.05 56.05 0 013.527-10.733.373.373 0 01.363-.197h18.941zm.022 27.734v20.833H31.457a.394.394 0 01-.426-.279 55.336 55.336 0 01-3.32-10.992c-.362-1.937-.642-3.895-.891-5.853-.166-1.275-.197-2.57-.29-3.865v-.134h24.128c.238-.031.29.051.29.29zm57.063-5.978H87.546a70.834 70.834 0 00-4.73-21.932h19.077a.413.413 0 01.446.27 53.582 53.582 0 014.719 13.664 57.54 57.54 0 011.038 7.666.544.544 0 00-.083.332zm.021 5.522c0 .497 0 .963-.073 1.43a54.379 54.379 0 01-.674 5.5 53.553 53.553 0 01-3.724 12.277c-.28.632-.581 1.264-.872 1.886a.279.279 0 01-.301.197H83.355l.664-1.917a66.756 66.756 0 003.413-17.374c0-.58.073-1.17.104-1.76 0-.156 0-.229.207-.218.066.005.132.005.197 0l20.094-.021zM98.76 23.709a.602.602 0 000 .082H80.555a.405.405 0 01-.426-.248 61.448 61.448 0 00-8.89-13.147 48.858 48.858 0 00-6.815-6.278c-1.224-.943-2.49-1.824-3.734-2.725l-.208-.155.25-.166c0-.114-.073-.228-.115-.394a53.603 53.603 0 0121.584 7.364A53.529 53.529 0 0198.76 23.71zm-51.307 83.625a1.791 1.791 0 01-.518.083 48.53 48.53 0 01-5.83-1.129A52.522 52.522 0 0120.13 95.503a50.58 50.58 0 01-6.37-6.36 53.197 53.197 0 01-3.972-5.492l-.083-.165h16.96a.416.416 0 01.425.27 64.323 64.323 0 006.12 9.976 63.565 63.565 0 007.18 7.936 55.87 55.87 0 006.918 5.553l.145.113zM47.236 1.217c-.758.55-1.66 1.181-2.521 1.844a62.278 62.278 0 00-8.081 7.511 56.5 56.5 0 00-8.475 12.07c-.145.28-.27.57-.425.828a.394.394 0 01-.26.166H10.265C19.342 10.8 31.54 3.144 47.049.792l-.104.218.29.207zm26.846 82.434A58.657 58.657 0 0165.783 94.8a51.969 51.969 0 01-9.43 7.987V83.651h17.729zm-23.164.011v18.762a54.375 54.375 0 01-16.95-18.762h16.95zM73.48 23.626H56.561V5.755a51.847 51.847 0 019.512 7.956 59.714 59.714 0 017.407 9.915zM50.928 6.314v17.457H34.642A51.485 51.485 0 0150.928 6.314z" fill="#EBEBEB"/><path d="M654.138 13.224H411.059v183.32h243.079V13.224z" stroke="#EBEBEB" stroke-miterlimit="10"/><path d="M654.138 13.224H411.059v12.184h243.079V13.224z" stroke="#EBEBEB" stroke-miterlimit="10"/><path d="M422.501 19.399a3.104 3.104 0 01-1.921 2.871 3.115 3.115 0 01-4.243-2.265 3.11 3.11 0 013.052-3.714 3.108 3.108 0 013.112 3.108z" fill="#C7C7C7"/><path d="M435.032 19.399a3.104 3.104 0 01-1.921 2.871 3.115 3.115 0 01-4.243-2.265 3.11 3.11 0 013.052-3.714 3.108 3.108 0 013.112 3.108z" fill="#EBEBEB"/><path d="M447.553 19.399a3.105 3.105 0 01-1.921 2.871 3.116 3.116 0 01-3.392-.674 3.107 3.107 0 012.201-5.305 3.113 3.113 0 013.112 3.108z" fill="#4AB45E"/><path d="M144.579 120.181H10.472v96.483H144.58v-96.483z" stroke="#EBEBEB" stroke-miterlimit="10"/><path d="M144.579 120.181H10.472v12.183H144.58v-12.183z" stroke="#EBEBEB" stroke-miterlimit="10"/><path d="M21.914 126.355a3.106 3.106 0 01-1.885 2.909 3.117 3.117 0 01-3.408-.641 3.104 3.104 0 01.447-4.796 3.113 3.113 0 014.846 2.528z" fill="#C7C7C7"/><path d="M34.445 126.355a3.106 3.106 0 01-1.885 2.909 3.117 3.117 0 01-3.408-.641 3.104 3.104 0 01.447-4.796 3.114 3.114 0 014.846 2.528z" fill="#EBEBEB"/><path d="M46.966 126.355a3.106 3.106 0 01-1.885 2.909 3.117 3.117 0 01-3.409-.641 3.104 3.104 0 01.448-4.796 3.113 3.113 0 014.846 2.528z" fill="#4AB45E"/><path d="M1.614 398.761l84.096-.248 84.097-.094L338 398.243l168.193.176 84.097.083 84.097.259-84.097.249-84.097.093-168.193.176-168.193-.176-84.097-.093-84.096-.249z" fill="#263238"/><path d="M634.531 40H41v358.508h593.531V40z" fill="#fff"/><path d="M634.843 398.264l-593.52.352h-.384v-.352l-.135-358.456v-.518h.519l593.531.218h.301v.3l-.312 358.456zm0 0l-.3-358.456.3.3-593.52.125.518-.518-.135 358.456-.383-.384 593.52.477z" fill="#EBEBEB"/><path d="M113.148 97.762h-15.82v2.538h15.82v-2.538zm0 11.385h-15.82v2.539h15.82v-2.539zm0-5.635h-15.82v2.538h15.82v-2.538z" fill="#EBEBEB"/><path d="M250.491 190.857H120.077v3.843h130.414v-3.843z" fill="#4AB45E"/><path d="M97.339 216.166c10.632-.207 21.255-.3 31.887-.383l31.888-.114 31.898.114 15.944.145 15.944.238-15.944.249-15.944.135-31.898.114-31.888-.114c-10.643-.083-21.265-.177-31.887-.384zm0 10.122c10.632-.207 21.255-.3 31.887-.383l31.888-.114 31.898.114 15.944.134 15.975.249-15.944.238-15.944.135-31.898.114-31.888-.114c-10.674-.083-21.296-.187-31.918-.373zm0 10.091c10.632-.208 21.255-.301 31.887-.373l31.888-.125 31.898.114 15.944.145 15.944.239-15.944.248-15.944.135-31.898.114-31.888-.114c-10.643-.114-21.265-.176-31.887-.383zm0 20.212c10.632-.197 21.255-.3 31.887-.373l31.888-.114 31.898.114 15.944.135 15.944.238-15.944.249-15.944.134-31.898.114-31.888-.114c-10.643-.083-21.265-.176-31.887-.383zm0 10.101c10.632-.207 21.255-.3 31.887-.383l31.888-.114 31.898.114 15.944.134 15.975.249-15.944.238-15.944.145-31.898.114-31.888-.114c-10.674-.072-21.296-.165-31.918-.383zm0 10.122c6.473-.207 12.935-.301 19.408-.384 6.473-.082 12.936-.072 19.409-.114 6.473-.041 12.935 0 19.408.114l9.699.135c3.237.083 6.473.135 9.699.249-3.226.103-6.462.155-9.699.238l-9.699.135c-6.473.083-12.946.083-19.408.114-6.463.031-12.946 0-19.409-.114-6.462-.114-12.946-.135-19.408-.373z" fill="#DBDBDB"/><path d="M105.751 170.012h3.714l8.237 21.622h-4.326l-2.013-5.387h-7.572l-1.981 5.387h-4.326l8.267-21.622zm4.845 13.282l-2.988-8.506-3.112 8.506h6.1zm26.929 2.766a4.932 4.932 0 01-2.075 4.144c-.679.47-1.433.82-2.23 1.036a9.875 9.875 0 01-2.697.363h-10.446v-21.591h11.597a4.241 4.241 0 012.075.487 5.091 5.091 0 011.546 1.264 5.791 5.791 0 011.037 1.762 5.87 5.87 0 01-.446 4.962 4.78 4.78 0 01-2.313 2.072 5.55 5.55 0 012.946 1.968 5.7 5.7 0 011.006 3.533zm-13.236-12.432v5.449h5.612a2.503 2.503 0 001.815-.735 2.67 2.67 0 00.747-2.01 2.787 2.787 0 00-.685-1.979 2.24 2.24 0 00-1.691-.725h-5.798zm8.993 11.665a3.093 3.093 0 00-.197-1.118 2.983 2.983 0 00-.529-.922 2.458 2.458 0 00-.799-.632 2.27 2.27 0 00-1.037-.228h-6.411v5.698h6.224a2.843 2.843 0 001.038-.208c.327-.14.624-.344.871-.6.249-.262.446-.568.581-.902.158-.349.246-.725.259-1.108v.02zm16.774 6.496a9.832 9.832 0 01-4.315-.932 10.64 10.64 0 01-3.32-2.466 11.512 11.512 0 01-2.915-7.573 10.807 10.807 0 01.809-4.144 11.25 11.25 0 012.231-3.512 10.531 10.531 0 013.371-2.414 9.93 9.93 0 014.232-.901 9.457 9.457 0 014.284.963 10.481 10.481 0 013.31 2.507 11.68 11.68 0 012.136 3.533 11.13 11.13 0 01.768 4.02 11.188 11.188 0 01-2.998 7.604 10.606 10.606 0 01-3.35 2.404 9.986 9.986 0 01-4.243.911zm-6.224-10.971a8.505 8.505 0 00.425 2.714 7.254 7.254 0 001.235 2.321 6.227 6.227 0 001.981 1.606c.824.421 1.74.631 2.666.611.94.018 1.87-.196 2.707-.622a6.214 6.214 0 001.982-1.657 7.359 7.359 0 001.213-2.331 8.499 8.499 0 00.415-2.642 8.21 8.21 0 00-.446-2.704 7.33 7.33 0 00-1.245-2.321 6.072 6.072 0 00-1.981-1.595 5.837 5.837 0 00-2.645-.591 5.746 5.746 0 00-2.708.622 5.916 5.916 0 00-1.981 1.647 7.447 7.447 0 00-1.213 2.311 8.756 8.756 0 00-.457 2.631h.052zm29.232 7.252a4.796 4.796 0 002.521-.611 5.04 5.04 0 001.628-1.575c.43-.685.729-1.444.882-2.238.171-.856.258-1.727.259-2.6v-11.034h4.15v11.024a15.936 15.936 0 01-.54 4.144 9.453 9.453 0 01-1.68 3.408 8.061 8.061 0 01-2.936 2.321 10.128 10.128 0 01-4.305.849 9.865 9.865 0 01-4.408-.901 8.219 8.219 0 01-2.936-2.373 9.563 9.563 0 01-1.639-3.429 16.273 16.273 0 01-.498-4.051v-10.992h4.212v11.024a12.78 12.78 0 00.259 2.631c.15.788.45 1.54.882 2.217a4.738 4.738 0 001.628 1.575c.768.43 1.641.642 2.521.611zm29.875-14.38h-6.919v17.944h-4.149V173.69h-6.919v-3.678h17.987v3.678zm18.299 14.38c.88.032 1.753-.18 2.52-.611a4.84 4.84 0 001.65-1.585c.43-.685.729-1.444.882-2.238a12.62 12.62 0 00.259-2.6v-11.024h4.149v11.024a15.508 15.508 0 01-.539 4.144 9.62 9.62 0 01-1.67 3.408 8.111 8.111 0 01-2.946 2.321 10.13 10.13 0 01-4.305.849 9.798 9.798 0 01-4.399-.901 8.182 8.182 0 01-2.946-2.373 9.58 9.58 0 01-1.639-3.429 16.272 16.272 0 01-.497-4.051v-10.992h4.211v11.024a12.78 12.78 0 00.259 2.631c.148.795.448 1.555.882 2.238a4.556 4.556 0 004.098 2.165h.031zm26.628-12.391a4.963 4.963 0 00-.778-.58 8.362 8.362 0 00-1.369-.715 11.921 11.921 0 00-1.753-.6 8.012 8.012 0 00-1.919-.239 4.31 4.31 0 00-2.594.632 2.147 2.147 0 00-.861 1.803c-.012.394.101.782.322 1.108.248.327.567.592.934.777a7.622 7.622 0 001.535.612c.622.186 1.338.373 2.157.58 1.038.279 2.013.59 2.874.911a7.681 7.681 0 012.199 1.223 5.064 5.064 0 011.39 1.751c.347.789.513 1.645.488 2.507a6.262 6.262 0 01-.654 2.973 5.506 5.506 0 01-1.774 2 7.745 7.745 0 01-2.562 1.108c-.992.235-2.009.353-3.029.352a16.335 16.335 0 01-4.824-.735 14.822 14.822 0 01-4.263-2.072l1.857-3.626c.301.274.631.513.985.715a13.971 13.971 0 003.859 1.637c.801.199 1.623.3 2.448.3 2.313 0 3.475-.736 3.475-2.227a1.817 1.817 0 00-.394-1.181 3.405 3.405 0 00-1.131-.86 10.684 10.684 0 00-1.773-.663l-2.314-.674a18.096 18.096 0 01-2.697-.932 6.966 6.966 0 01-1.908-1.181 4.372 4.372 0 01-1.142-1.585 5.391 5.391 0 01-.383-2.145 6.652 6.652 0 01.612-2.932 5.762 5.762 0 011.691-2.072 7.508 7.508 0 012.51-1.295 10.22 10.22 0 013.112-.445 11.977 11.977 0 014.212.715c1.179.43 2.303.997 3.35 1.688l-1.888 3.367z" fill="#263238"/><path d="M156.01 297.627H97.328v16.12h58.682v-16.12z" fill="#4AB45E"/><path d="M104.87 308.132v-4.942h.487v4.507h2.853v.435h-3.34zm7.386-.414v.414h-3.33v-4.942h3.267v.435h-2.78v1.782h2.448v.404h-2.417v1.886l2.812.021zm2.448-4.507h.415l2.074 4.942h-.518l-.644-1.544h-2.219l-.633 1.544h-.519l2.044-4.942zm1.193 3.015l-1.038-2.445-1.037 2.445h2.075zm1.981 1.906v-4.942h2.075c.204.001.406.047.591.135.175.094.333.216.467.363.127.147.229.315.3.497.07.178.105.368.104.559.002.176-.022.35-.072.518-.053.16-.13.31-.229.446-.09.133-.206.246-.342.331a1.115 1.115 0 01-.456.187l1.213 1.906h-.55l-1.161-1.823h-1.463v1.823h-.477zm.487-2.248h1.619a.864.864 0 00.394-.104c.115-.063.217-.147.301-.248.083-.11.15-.233.197-.363.041-.138.062-.281.062-.425a1.175 1.175 0 00-.29-.787c-.091-.1-.2-.181-.322-.238a.854.854 0 00-.384-.094h-1.577v2.259zm4.544-1.761v4.009h-.488v-4.942h.384l3.268 4.144v-4.144h.487v4.942h-.425l-3.226-4.009zm11.048 4.009v-4.051l-1.805 3.108h-.281l-1.804-3.108v4.051h-.488v-4.942h.498l1.929 3.388 1.951-3.388h.487v4.942h-.487zm3.724.052a2.082 2.082 0 01-.944-.207 2.48 2.48 0 01-.737-.56 2.63 2.63 0 01-.477-.808 2.674 2.674 0 01.01-1.875c.117-.294.286-.564.498-.798.206-.231.456-.418.737-.549.284-.138.596-.208.913-.207.327-.003.65.072.944.217.281.143.532.34.736.581a2.653 2.653 0 01.633 1.709 2.47 2.47 0 01-.177.953 2.618 2.618 0 01-.487.798 2.453 2.453 0 01-.737.549 2.081 2.081 0 01-.912.197zm-1.837-2.497c-.002.265.044.528.135.777.079.241.206.463.374.653a1.8 1.8 0 00.581.466c.231.115.488.172.747.166.262.002.522-.059.757-.176.222-.121.419-.283.581-.477.159-.198.282-.423.363-.663.081-.24.123-.492.124-.746a2.17 2.17 0 00-.135-.777 2.449 2.449 0 00-.373-.663 2.092 2.092 0 00-.581-.456 1.606 1.606 0 00-.736-.166 1.713 1.713 0 00-.768.176 1.91 1.91 0 00-.571.467 2.314 2.314 0 00-.363.663 2.097 2.097 0 00-.135.756zm5.063 2.445v-4.942h2.074c.205.001.407.047.592.135.175.094.332.216.466.363.128.147.23.315.301.497.07.178.105.368.104.559.004.177-.025.352-.083.518a1.62 1.62 0 01-.218.446c-.09.133-.206.246-.342.331a1.19 1.19 0 01-.457.187l1.214 1.906h-.539l-1.162-1.823h-1.463v1.823h-.487zm.487-2.248h1.587a.894.894 0 00.395-.104c.115-.063.217-.147.3-.248.084-.11.151-.233.197-.363.042-.138.063-.281.063-.425a1.175 1.175 0 00-.073-.424 1.758 1.758 0 00-.218-.363c-.09-.1-.2-.181-.321-.238a.857.857 0 00-.384-.094h-1.577l.031 2.259zm7.386 1.834v.414h-3.319v-4.942h3.257v.435h-2.77v1.782h2.417v.404h-2.417v1.886l2.832.021z" fill="#fff"/><path d="M634.843 39.715H41.313v9.282h593.53v-9.282z" fill="#37474F"/><path d="M48.698 44.356a2.298 2.298 0 01-1.422 2.125 2.306 2.306 0 01-3.14-1.676 2.297 2.297 0 01.98-2.361 2.305 2.305 0 011.28-.388 2.315 2.315 0 012.302 2.3z" fill="#C7C7C7"/><path d="M58.107 44.356a2.297 2.297 0 01-1.432 2.129 2.306 2.306 0 01-3.135-1.706 2.296 2.296 0 011.015-2.356 2.306 2.306 0 011.29-.367 2.315 2.315 0 012.262 2.3z" fill="#fff"/><path d="M67.515 44.356a2.297 2.297 0 01-1.414 2.122 2.307 2.307 0 01-2.506-.485 2.299 2.299 0 113.232-3.271 2.31 2.31 0 01.688 1.634z" fill="#4AB45E"/><path d="M634.843 48.997h-10.197v349.236h10.197V48.997z" fill="#DBDBDB"/><path d="M629.74 170.064a2.634 2.634 0 01-1.867-.767 2.625 2.625 0 01-.768-1.864V53.67a2.635 2.635 0 01.772-1.861 2.63 2.63 0 012.871-.57 2.634 2.634 0 011.626 2.43v113.764a2.63 2.63 0 01-2.634 2.631z" fill="#A6A6A6"/><path d="M555.498 333.856v40.849H596.4v-40.849h-40.902zm3.112 37.762v-34.675h34.709v34.675H558.61z" fill="#EBEBEB"/><path d="M574.263 262.465H454.596v119.513h119.667V262.465z" fill="#455A64"/><path d="M477.656 381.978h66.576c.28-2.538-9.917-56.566-21.887-73.939-1.359-1.969-13.009-3.409-17.282 1.492-22.635 25.972-27.946 71.825-27.407 72.447z" fill="#263238"/><path d="M523.921 312.525c1.888 4.89 9.015 22.025 12.894 34.333 2.594 8.288 3.589 15.177 4.15 17 0 0-19.71-6.298-24.087-6.309-6.816 0-17.749 14.193-15.073 15.975 4.222 2.808 24.315 12.329 40.373 15.323 8.724 1.626 25.156-9.449 23.859-18.255-1.815-12.359-24.18-44.931-32.686-54.172-4.409-4.797-11.743-9.852-9.43-3.895z" fill="#EB9481"/><path d="M567.251 373.203c-.415 8.899-11.567 16.4-18.029 16.794-11.152.673-44.606-9.055-44.606-9.055l12.998-25.03s22.822 7.719 23.351 7.936c-.197-.663-5.809-21.756-8.299-28.687-.135-.383-.291-.777-.436-1.191a407.496 407.496 0 00-2.811-7.252c-.602-1.533-1.245-3.108-1.878-4.704-2.748-6.816-5.425-13.312-5.425-13.312 3.828.632 7.614 2.642 13.828 9.158 6.214 6.516 31.981 40.663 31.307 55.343z" fill="#263238"/><path d="M513.309 375.524c.934-1.772 1.878-3.533 2.801-5.305.923-1.771 1.847-3.46 2.78-5.18a60.55 60.55 0 002.749-5.428s0-.073 0 0a45.662 45.662 0 00-3.112 4.921 212.02 212.02 0 00-2.925 5.242 406.074 406.074 0 00-2.749 5.18 43.672 43.672 0 00-2.51 5.553c0 .083.072.155.124.083a52.724 52.724 0 002.842-5.066zm34.616-7.977l-6.95-3.689c-.197-.663-5.809-21.756-8.299-28.686-.135-.384-.29-.777-.435-1.192a408.44 408.44 0 00-2.812-7.252l18.496 40.819z" fill="#37474F"/><path d="M553.672 370.603a56.738 56.738 0 00-6.1-3.916c-1.037-.591-2.074-1.14-3.215-1.627-1.141-.487-2.407-.901-3.569-1.43-.093 0-.155.104-.062.135 1.037.497 2.075 1.181 3.164 1.751 1.089.57 2.178 1.171 3.278 1.74 2.168 1.109 4.294 2.29 6.452 3.43.052.031.145-.052.052-.083z" fill="#37474F"/><path d="M548.579 365.205c-1.753 0-12.282-2.787-13.818-1.336-9.336 8.795-12.302 7.024-14.294 8.174-15.404 8.847-35.985 19.249-43.329 19.311-11.131.093-15.56-9.241-13.714-18.058 3.662-17.435 27.199-51.427 37.852-60.461 5.654-4.786 5.187 2.435 2.863 10.267-1.369 4.6-3.765 11.396-6.224 18.141-2.168 5.977-7.904 21.248-8.008 21.611h.114c.498-.094 13.672-6.289 26.919-9.697 4.668-1.202 14.388-2.912 17.873-1.358 2.075.922 2.075 2.166 2.075 2.166a5.104 5.104 0 013.423 1.284 4.926 4.926 0 011.515 2.311 5.179 5.179 0 012.769 1.305 4.728 4.728 0 011.224 2.58c2.542.735 2.76 3.76 2.76 3.76z" fill="#EB9481"/><path d="M533.019 353.716a25.375 25.375 0 00-4.15.466c-.093 0-.093.156 0 .145 1.349-.145 2.729-.176 4.087-.217a88.455 88.455 0 014.088-.052 21.908 21.908 0 00-4.025-.342zm8.848 3.833a16.888 16.888 0 00-7.355-.653.09.09 0 00-.039.031.087.087 0 00-.015.047.085.085 0 00.054.078 28.82 28.82 0 017.355.549s.031-.041 0-.052zm4.015 3.896a16.541 16.541 0 00-6.971-1.306c-.094 0-.125.135 0 .145a40.69 40.69 0 016.95 1.264c.041.01.072-.083.021-.103zm-29.533-8.061a30.033 30.033 0 00-3.444.767c-1.214.301-2.417.622-3.589 1.036a66.282 66.282 0 00-6.93 2.746c-.011-.005-.023-.007-.035-.005a.063.063 0 00-.032.012.067.067 0 00-.024.026.077.077 0 000 .068c.006.01.014.019.024.026a.07.07 0 00.067.007 202.717 202.717 0 016.971-2.289l3.423-1.119c1.172-.384 2.397-.674 3.548-1.109.093-.052.093-.176.021-.166z" fill="#263238"/><path d="M507.085 355.881a12.743 12.743 0 013.548-.829l13.859 23.373s-38.184 13.727-46.016 14.504a15.658 15.658 0 01-11.738-3.956 15.593 15.593 0 01-5.171-11.243c-.218-13.809 22.344-46.982 33.693-59.818 5.186-5.874 11.255-10.143 12.8-9.179 1.826 1.139-1.483 8.526-3.236 14.038-3.226 10.184-14.792 40.124-14.792 40.124s14.19-6.071 17.053-7.014z" fill="#263238"/><path d="M510.55 355.032c-2.158.124-11.411 3.356-16.016 5.314a78.925 78.925 0 00-13.019 7.024c-2.313 1.565-4.523 3.264-6.691 5.025a.058.058 0 00-.02.021.07.07 0 000 .083.064.064 0 00.02.02c.008.006.017.01.027.011a.07.07 0 00.029 0 .054.054 0 00.027-.011 138.113 138.113 0 0125.934-14.079c2.603-1.036 7.085-2.528 9.626-3.191.685-.186.145-.228.083-.217z" fill="#37474F"/><path d="M501.39 334.591c-.581.933-1.172 1.865-1.67 2.849l-.062.145a158.092 158.092 0 002.075-6.765c0-.134-.187-.207-.239-.072-3.278 8.288-6.328 16.69-9.284 25.112-.82 2.363-1.546 4.735-2.293 7.118 0 .083.104.124.135 0 .903-2.072 1.816-4.061 2.635-6.144.82-2.082 1.598-4.144 2.365-6.216a265.589 265.589 0 003.901-11.033c.383-.642.778-1.295 1.151-1.948.529-.963.975-1.968 1.421-2.973.083-.104-.072-.176-.135-.073zm13.849 38.736c-1.038-1.719-2.013-3.449-3.029-5.18-1.017-1.73-1.961-3.387-2.936-5.086a58.879 58.879 0 00-3.164-5.18h-.062a44.27 44.27 0 002.552 5.18 260.761 260.761 0 002.904 5.252 237.413 237.413 0 002.967 5.077 45.026 45.026 0 003.403 5.076c.052.062.166 0 .134-.073a52.103 52.103 0 00-2.769-5.066z" fill="#37474F"/><path d="M525.083 378.476c-1.151-2.268-2.936-4.486-4.263-6.64 0-.083-.166 0-.125.082 1.203 2.021 2.303 4.196 3.454 6.216-5.238 2.166-10.809 4.093-16.161 5.989-5.353 1.895-11.006 3.781-16.598 5.397-3.112.901-6.224 1.875-9.408 2.704-.197 0-.145.207.052.166a141.348 141.348 0 0016.753-4.403c5.591-1.772 11.12-3.75 16.597-5.802 3.05-1.16 9.792-3.533 9.699-3.709z" fill="#37474F"/><path d="M515.996 353.395a186.7 186.7 0 00-19.222 6.33l-.28.103c-3.278 1.285-5.301 2.238-5.788 2.321l-.104-.062a4.176 4.176 0 00-1.037-.56c-.923-.331-9.793-1.44-9.564-4.144.228-2.704 3.827-2.538 4.356-2.507-.57-.124-5.383-1.253-3.817-3.646 1.11-1.71 5.871-1.461 6.359-1.441-.488-.155-4.917-1.595-3.392-4.05 1.089-1.751 6.41-1.523 7.022-1.42-.497-.186-4.439-.849-2.593-2.963 1.276-1.471 11.297 0 15.757 2.249 6.639 3.253 12.303 9.79 12.303 9.79z" fill="#EB9481"/><path d="M496.774 359.725l-.28.103a32.178 32.178 0 00-11.929-4.858c-.291 0-.311-.197 0-.187a22.124 22.124 0 0112.209 4.942zm-9.637-9.801c6.307 1.243 9.16 2.642 14.596 6.082.072.051.155-.063.083-.114-5.063-3.782-8.206-5.657-14.627-6.134-.29-.02-.342.104-.052.166zm3.61-5.532c6.058 1.616 9.253 3.004 14.129 6.952.114.093.259 0 .145-.156a22.704 22.704 0 00-14.211-6.962c-.395-.041-.446.073-.063.166z" fill="#263238"/><path d="M521.079 320.139c-3.589 1.285-10.56-3.615-13.579-7.894-.197-.301-.093-3.647-.155-7.718 0-2.476-.166-5.18-.457-7.729l16.162 2.072a40.425 40.425 0 00-.425 9.79c.045.352.122.698.228 1.036v.166c.581 1.855 1.691 9.034-1.774 10.277z" fill="#EB9481"/><path d="M522.894 309.8a2.5 2.5 0 01.083.352c-9.668-.414-13.35-4.662-15.736-8.733a67.04 67.04 0 00-.353-4.621l16.162 2.072a39.828 39.828 0 00-.425 9.79c.04.353.116.7.228 1.036 0 0 .021.042.041.104z" fill="#263238"/><path d="M500.27 279.87c-.882 5.791 4.419 21.373 8.89 24.367 6.494 4.34 15.933 3.449 19.326-4.072 3.288-7.252-3.973-27.475-8.859-30.044-7.199-3.854-18.06 1.181-19.357 9.749z" fill="#EB9481"/><path d="M515.208 286.873s-.063.083 0 .125c.383 1.036.643 2.299-.187 2.962v.052c1.089-.528.726-2.206.187-3.139z" fill="#263238"/><path d="M513.901 286.096c-1.733.435-.737 3.865.881 3.461 1.619-.405.602-3.834-.881-3.461zm7.79-1.17s.104 0 .114.072c.28 1.036.778 2.259 1.836 2.331v.062c-1.214.176-1.857-1.398-1.95-2.465z" fill="#263238"/><path d="M522.324 283.537c1.68-.621 2.811 2.766 1.255 3.347-1.556.58-2.656-2.818-1.255-3.347zm-10.239 1.378c.419-.262.82-.549 1.204-.86.446-.331.85-.549 1.037-1.098a.762.762 0 00-.374-.849 1.895 1.895 0 00-1.867.342 2.753 2.753 0 00-1.193 1.595.795.795 0 00.305.834.797.797 0 00.888.036zm11.069-3.491c-.491.026-.983.026-1.473 0a2.458 2.458 0 01-1.515-.238.77.77 0 01-.207-.902 1.855 1.855 0 011.69-.86 2.768 2.768 0 011.92.539.812.812 0 01.304.876.806.806 0 01-.719.585z" fill="#263238"/><path d="M517.874 293.234a3.822 3.822 0 002.883.912 4.856 4.856 0 001.328-.321l.239-.104.228-.103a.291.291 0 00.145-.301.444.444 0 000-.103v-.094a37.923 37.923 0 00-.653-2.072c.342.073 2.074.311 1.919-.114a56.409 56.409 0 00-4.606-10.557c0-.113-.228.001-.187.083 1.038 3.398 2.718 6.579 3.849 9.977a6.635 6.635 0 00-1.867 0c-.104.062.892 2.341.964 2.725a5.198 5.198 0 01-4.087-.073c-.187-.02-.249.083-.155.145z" fill="#263238"/><path opacity=".2" d="M501.971 290.851c.913-.756 2.075-4.589 2.614-6.216.54-1.626-1.099-8.288-1.639-10.297a10.89 10.89 0 00-2.666 5.542c-.394 2.456.363 6.734 1.691 10.971z" fill="#263238"/><path d="M517.251 276.296a5.315 5.315 0 01-1.671 2.092 5.349 5.349 0 01-2.478 1.016 5.467 5.467 0 01-4.938-1.958c0-.052-.093 0-.062.051a5.393 5.393 0 005.041 2.342 5.514 5.514 0 004.274-3.46c-.021-.104-.135-.156-.166-.083zm-8.962-11.127a8.382 8.382 0 00-5.716 5.677 5.924 5.924 0 00.519 3.916h.103a6.58 6.58 0 011.338-6.568 8.485 8.485 0 016.961-2.932 5.419 5.419 0 013.413 1.42c.093.093.29 0 .207-.135-1.338-1.668-4.149-2.217-6.825-1.378zm19.138 1.523a6.803 6.803 0 00-3.807-2.725c-2.147-.601-4.149.156-6.161.953v.083a9.469 9.469 0 015.29-.901 6.821 6.821 0 013.89 2.279 6.445 6.445 0 01.766 6.948 6.45 6.45 0 01-6.025 3.557c-.062 0-.083.114 0 .114a6.686 6.686 0 006.239-3.308 6.675 6.675 0 00.898-3.558 6.657 6.657 0 00-1.121-3.494l.031.052z" fill="#263238"/><path d="M500.229 283.185s-4.336-4.527-2.843-8.288c.851-2.124 5.363-3.108 5.363-3.108a8.285 8.285 0 014.15-4.838c3.475-1.906 8.516-1.036 8.516-1.036s2.967-3.015 6.815-2.072c5.363 1.336 6.774 8.526 2.76 12.09-2.811 2.507-8.06.87-8.06.87-.415.187-4.036 4.041-8.434 1.036 0 0-2.002 3.108-4.886 2.155a4.026 4.026 0 01-3.381 3.191z" fill="#263238"/><path d="M505.623 292.416s-4.482-4.559-6.608-2.88c-2.127 1.678 1.846 8.713 4.772 9.272a2.817 2.817 0 002.204-.312 2.83 2.83 0 001.291-1.812l-1.659-4.268z" fill="#EB9481"/><path d="M500.197 291.556v.073c2.075.466 3.382 2.072 4.409 3.812a1.574 1.574 0 00-1.849-.402 1.574 1.574 0 00-.537.402s0 .114.062.093a1.768 1.768 0 012.003.28c.439.416.829.882 1.161 1.388.125.156.415 0 .322-.176-.394-2.58-2.832-5.698-5.571-5.47z" fill="#263238"/><path d="M522.842 309.458l-3.433 9.5-12.033-11.344-3.112 3.906s12.043 18.285 12.074 17.436l3.538-8.174 5.757 5.376-1.037-13.996-1.754-2.704z" fill="#EBEBEB"/><path d="M525.519 319.207c-.239-2.3-.415-4.631-.768-6.921 0-.083-.135-.114-.155 0-.374 2.248.591 11.065.663 13.178-.238-.228-5.321-4.714-5.373-4.641-.778 1.305-3.382 7.252-3.548 7.801-1.908-2.911-9.19-13.468-11.41-16.182a.08.08 0 00-.048-.02.086.086 0 00-.084.051.084.084 0 00-.003.052c1.701 3.108 11.338 17.29 11.473 17.239a88.652 88.652 0 003.693-8.63c.871.984 6.027 6.06 6.037 5.719a74.56 74.56 0 00-.477-7.646z" fill="#263238"/><path d="M446.339 202.802H323.954v126.195h122.385V202.802z" fill="#4AB45E"/><path d="M294.11 240.481v64.895h64.979v-64.895H294.11zm4.907 59.995v-55.095h55.165v55.095h-55.165z" fill="#A6A6A6"/><path d="M404.68 238.295c3.216-.756 11.556 1.42 14.408 5.678 2.853 4.257 2.718 11.23 1.297 11.934-1.421.705-7.583.27-11.836-1.989-4.253-2.258-5.456-15.198-3.869-15.623z" fill="#263238"/><path d="M404.669 238.316c-.103 0-.124-.197 0-.207 2.832-.114 5.872.797 8.579 1.533a16.391 16.391 0 016.224 2.745 7.555 7.555 0 012.842 5.678 15.432 15.432 0 01-1.369 7.728c0 .062-.155 0-.135 0 1.235-4.724 2.282-10.484-2.448-13.613-4.035-2.704-9.128-2.942-13.693-3.864z" fill="#263238"/><path d="M419.949 254.685c2.832.321 10.26 5.584 11.567 10.929 1.307 5.346-2.926 13.344-4.295 13.935-1.369.59-7.697-4.455-9.792-8.195-1.401-2.507-.374-5.46.207-8.402.788-4.33 1.826-8.309 2.313-8.267z" fill="#263238"/><path d="M415.676 270.701c-.924-5.449 2.074-10.909 3.879-15.871 0-.052.104 0 .093 0-.954 4.755-3.744 9.054-3.755 14.007a9.031 9.031 0 00.836 4.217 9.057 9.057 0 002.691 3.356c2.127 1.533 4.782 2.206 7.262 3.035.166.052.062.29-.104.238-4.917-1.491-9.959-3.346-10.902-8.982zm4.844-15.519a.127.127 0 01-.053-.155.125.125 0 01.146-.073c4.046 1.844 8.921 4.538 11.131 8.568 2.396 4.372.135 9.013-1.878 13.022h-.083c1.982-4.061 4.067-9.096 1.359-13.343-2.334-3.699-6.805-6.216-10.622-8.019z" fill="#263238"/><path d="M426.837 279.414a12.085 12.085 0 00-4.429 8.475c-.415 6.547-2.977 5.521-9.844 7.946-5.81 2.072-6.401 8.837-2.895 11.8 0 0-2.251-3.916 1.556-6.33 4.544-2.891 16.027 1.036 20.809-6.289 6.183-9.469-5.197-15.602-5.197-15.602z" fill="#263238"/><path d="M428.009 280.087s-.083 0 0 .063c2.594 2.072 5.312 4.144 6.339 7.48 1.099 3.574-.415 7.417-3.061 9.914-2.966 2.787-6.535 1.958-10.197 1.627a14.892 14.892 0 00-7.79.859c-.073 0 0 .166.062.135 4.015-1.367 7.894-.528 11.992-.28a8.157 8.157 0 007.686-3.978c4.056-6.112.529-12.256-5.031-15.82z" fill="#263238"/><path d="M407.107 235.301a1.133 1.133 0 011.527-.121 1.131 1.131 0 01.247 1.509c-.882 1.161-2.656-.228-1.774-1.388z" fill="#4AB45E"/><path d="M406.267 237.218a1.129 1.129 0 011.526-.121 1.126 1.126 0 01.248 1.509c-.882 1.15-2.614-.228-1.774-1.388z" fill="#4AB45E"/><path d="M405.095 238.979a1.133 1.133 0 011.526-.121c.223.175.373.427.419.706.045.28-.016.566-.171.803a1.129 1.129 0 01-1.527.121 1.127 1.127 0 01-.247-1.509z" fill="#4AB45E"/><path d="M403.736 240.523a1.129 1.129 0 011.526-.121 1.126 1.126 0 01.248 1.509c-.882 1.16-2.656-.228-1.774-1.388z" fill="#4AB45E"/><path d="M402.097 241.828c.882-1.16 2.655.228 1.774 1.388a1.129 1.129 0 01-1.527.121 1.132 1.132 0 01-.247-1.509z" fill="#4AB45E"/><path d="M400.313 242.864a1.133 1.133 0 011.526-.121c.223.175.373.427.419.706.045.28-.016.567-.172.803-.881 1.098-2.645-.29-1.773-1.388z" fill="#4AB45E"/><path d="M398.622 263.688c-4.865 5.988-30.913 24.864-52.904 24.491-7.469-.114-28.216-31.951-32.054-44.051-2.749-8.692 15.726-13.085 20.954-11.831 6.515 1.574 19.212 28.873 21.722 29.008 7.469.518 20.29-3.968 36.027-5.564 8.101-.777 10.01 3.347 6.255 7.947z" fill="#AD6359"/><path d="M314.401 246.127c-1.39-3.025-7.915-19.839-8.444-24.159-.529-4.32-1.141-16.897 2.137-17.612 3.278-.715 3.744 2.932 3.744 2.932s.581-5.356 3.953-5.802c3.371-.445 3.921 5.284 3.921 5.284s1.037-5.45 4.388-5.657c3.35-.207 2.977 5.646 2.977 5.646s.674-5.024 3.537-4.019c3.454 1.212 1.152 10.36 2.075 15.063.218 1.036 5.892 21.487 5.892 21.487l-24.18 6.837z" fill="#AD6359"/><path d="M327.098 206.231c-1.67 6.703-1.245 9.935.892 16.4 0 .124-.135.217-.187.083-2.676-6.133-3.797-10.101-1.037-16.576.145-.321.415-.228.332.093zm-7.251-.021c-1.121 7.118-.685 10.619 1.037 17.56 0 .094-.135.146-.166.052-2.282-6.661-3.309-10.65-1.245-17.612.104-.321.426-.331.374 0zm-7.905 1.43c-.591 6.983-.28 10.837 2.272 17.353a.128.128 0 01-.009.09.135.135 0 01-.23.024c-3.246-6.392-3.672-11.21-2.251-17.457.104-.466.26-.487.218-.01z" fill="#263238"/><path d="M343.187 242.418s.964-8.609.549-12.483c-.414-3.875-7.261-17.757-10.373-16.452-3.983 1.689-1.608 10.484.125 14.639 0 0-9.222 3.905-8.88 10.588.342 6.682 18.579 3.708 18.579 3.708z" fill="#AD6359"/><path d="M332.45 214.312c-2.52 4.144.104 9.458 1.484 13.613a.414.414 0 01-.043.372.406.406 0 01-.331.177c-3.755 1.896-8.506 5.656-9.128 10.049a.104.104 0 01-.038.052.11.11 0 01-.061.019.11.11 0 01-.061-.019.102.102 0 01-.037-.052c0-4.807 4.387-8.878 8.63-10.691-1.473-4.238-3.869-9.677-.446-13.541.011-.031.052-.01.031.021z" fill="#263238"/><path d="M367.491 259.233l9.067 20.927s13.713-6.516 22.053-14.939c8.341-8.423-.933-11.251-9.004-10.029-8.07 1.223-22.116 4.041-22.116 4.041z" fill="#EBEBEB"/><path d="M398.611 265.262c-8.298 8.423-22.053 14.939-22.053 14.939l-2.76-6.371 27.625-15.996c1.016 1.678.456 4.123-2.812 7.428z" fill="#C7C7C7"/><path d="M379.981 277.259a160.385 160.385 0 01-7.832-17.995c0-.073.093-.124.124 0 .613 1.616 4.928 10.526 7.843 17.985.041.052-.094.093-.135.01z" fill="#263238"/><path d="M377.834 300.631l-3.724 28.366h59.449s-7.863-53.199-20.56-69.557c-6.348-8.174-14.854-7.957-20.871-1.709-1.317 1.357-14.595 20.305-16.94 28.127-2.043 6.931 2.646 14.773 2.646 14.773z" fill="#EBEBEB"/><path d="M395.136 260.59l-3.755 10.059a389.872 389.872 0 00-3.568 10.101c-1.038 3.399-2.334 6.797-1.826 10.257a26.097 26.097 0 003.371 9.883l.083.145v.145c-.518 4.507-1.13 9.014-1.68 13.468a678.042 678.042 0 01-1.826 13.468c.387-4.53.799-9.051 1.235-13.561.456-4.517.871-9.034 1.369-13.54l.062.279a26.904 26.904 0 01-3.62-10.246 14.81 14.81 0 01.384-5.49c.456-1.762 1.037-3.471 1.587-5.18 1.151-3.409 2.51-6.724 3.869-10.039 1.359-3.316 2.801-6.496 4.315-9.749zm-8.298 13.105a.889.889 0 00.653 1.036.825.825 0 00.622-.163.821.821 0 00.312-.562.878.878 0 00-.654-1.036.814.814 0 00-.933.725zm-3.6 9.791a.88.88 0 00.654 1.036.817.817 0 00.614-.161.805.805 0 00.309-.554.878.878 0 00-.654-1.036.817.817 0 00-.614.16.817.817 0 00-.309.555zm-.456 9.987a.88.88 0 00.653 1.036.815.815 0 00.618-.161.806.806 0 00.316-.554.89.89 0 00-.654-1.036.828.828 0 00-.618.16.823.823 0 00-.315.555z" fill="#263238"/><path d="M385.562 301.75a.878.878 0 00.653 1.036c.109.016.219.01.326-.017a.833.833 0 00.507-.388.832.832 0 00.101-.31.895.895 0 00-.12-.648.899.899 0 00-.534-.388.81.81 0 00-.618.161.811.811 0 00-.315.554zm-1.079 9.024a.895.895 0 00.653 1.036.814.814 0 00.829-.414.81.81 0 00.095-.311.889.889 0 00-.654-1.036.815.815 0 00-.618.164.8.8 0 00-.305.561zm-.986 8.909a.889.889 0 00.654 1.036.825.825 0 00.622-.163.835.835 0 00.312-.562.883.883 0 00-.664-1.036.806.806 0 00-.832.411.813.813 0 00-.092.314z" fill="#263238"/><path d="M395.406 360.067c2.998 2.072 8.039-6.921 9.751-8.837 1.712-1.917 2.458-1.855 2.355-.394l3.9-15.457c-2.023 1.564-6.307 4.931-8.589 7.148-3.06 2.963-10.415 15.509-7.417 17.54z" fill="#AD6359"/><path d="M417.875 261.74c12.697 10.225 28.703 28.21 31.97 39.834 2.511 8.972-10.124 40.145-13.89 47.418-1.639 3.17-23.381-6.475-24.335-10.174-.955-3.698 14.201-30.541 14.346-33.39.145-2.849-9.761-21.663-16.514-34.385-8.247-15.415-2.428-17.995 8.423-9.303z" fill="#AD6359"/><path d="M397.543 368.945c2.002 2.176 6.058-.466 6.058-.466s-3.61 4.455-.788 6.216c2.821 1.761 6.67-2.072 6.67-2.072s-3.112 4.268-.156 5.781c2.956 1.512 6.732-1.792 6.732-1.792s-.207 1.636 2.355 1.782c3.672.207 8.911-5.74 10.913-9.49 2.002-3.751 6.545-18.969 7.209-21.311l-24.014-13.033s-.425.311-1.11.85l-3.911 15.426c-.062.963-2.811 6.9-3.807 8.609-2.24 3.844-8.402 7.055-6.151 9.5z" fill="#AD6359"/><path d="M403.725 368.22c5.384-4.072 7.034-6.776 9.336-12.992 0-.124.239-.082.198.052-1.733 6.289-3.31 9.987-9.388 13.22-.26.196-.405-.042-.146-.28zm5.488 4.496c5.187-4.724 7.033-7.645 9.969-13.975 0-.094.197 0 .155.062-2.344 6.454-4.004 10.101-9.844 14.131-.259.186-.519-.011-.28-.218zm6.867 3.792c4.72-4.931 6.846-8.06 8.9-14.566a.131.131 0 01.059-.079.122.122 0 01.097-.014.127.127 0 01.093.155c-1.452 6.838-4.076 10.754-8.983 14.628-.342.249-.446.166-.166-.124z" fill="#263238"/><path d="M415.437 289.722l18.33-13.706s-9.523-11.81-19.658-17.964c-10.135-6.154-10.757 3.543-7.645 11.106 3.112 7.562 8.973 20.564 8.973 20.564z" fill="#EBEBEB"/><path d="M430.105 273.416a162.496 162.496 0 01-15.716 11.779c-.062 0-.135-.062-.072-.114 1.442-.974 9.118-7.252 15.715-11.79.073-.052.145.062.073.125z" fill="#263238"/><path d="M412.211 281.973c-1.11-2.497-2.635-6.133-3.901-8.568h-.062a60.576 60.576 0 001.65 4.238 2.835 2.835 0 00-.135-.218 32.307 32.307 0 00-1.442-1.917c.384.705.799 1.399 1.245 2.072.28.425.581.829.881 1.233.322.736 1.038 2.559 1.38 3.295.539 1.233 3.174 8.174 3.288 8.091.643-.422 1.26-.882 1.847-1.378.093-.073 0-.238-.135-.166-.332.28-1.162.829-1.297.933-.591-1.254-1.037-2.58-1.628-3.865a229.514 229.514 0 01-1.691-3.75z" fill="#263238"/><path d="M404.503 255.534c-.311 1.036-5.778 7.708-10.643 7.252-1.587-.166-1.089-8.847-1.089-8.847l-.114-.643-1.535-9.096 10.933-6.216 1.577-.808s.249 2.518.539 5.647v.445c0 .155 0 .342.052.508.052.476.094.953.135 1.429.042.477.062.715.083 1.098.021.384 0 .757.073 1.14a59.853 59.853 0 01-.011 8.091z" fill="#AD6359"/><path d="M404.171 242.791a18.515 18.515 0 01-4.61 6.479 18.564 18.564 0 01-6.904 3.954l-1.535-9.096 10.933-6.216 1.577-.808s.249 2.559.539 5.687z" fill="#263238"/><path d="M379.722 228.163c-3.299 15.841 5.84 19.601 9.253 20.306 3.112.632 13.765 2.424 18.672-13.002 4.906-15.426-1.422-21.953-8.455-23.828s-16.182.673-19.47 16.524z" fill="#AD6359"/><path d="M385.074 224.423c.373.021.747.021 1.121 0 .394.036.79-.055 1.13-.259a.578.578 0 00.114-.694 1.443 1.443 0 00-1.338-.57 2.078 2.078 0 00-1.421.518.611.611 0 00.394 1.005zm10.903 2.435c-.363-.114-.685-.27-1.038-.415a1.875 1.875 0 01-.985-.621.57.57 0 01.124-.694 1.43 1.43 0 011.442-.094c.497.16.916.5 1.172.954a.622.622 0 01-.08.662.621.621 0 01-.635.208zm-2.801 3.429s.072.062.062.104c-.249 1.036-.342 2.351.57 2.9v.063c-1.182-.405-1.037-2.093-.632-3.067z" fill="#263238"/><path d="M394.358 229.396c1.764.197 1.224 3.719-.404 3.522-1.629-.196-1.079-3.75.404-3.522z" fill="#263238"/><path d="M395.053 229.634c.27.239.519.643.892.736.374.093.799-.218 1.131-.529 0 0 .062 0 .052.052-.093.674-.456 1.326-1.193 1.316-.736-.01-1.037-.673-1.12-1.378-.042-.135.093-.3.238-.197zm-8.547-.87c0-.052-.094 0-.094.083-.124 1.036-.456 2.331-1.493 2.548v.063c1.234.01 1.649-1.637 1.587-2.694z" fill="#263238"/><path d="M385.717 227.479c-1.732-.383-2.386 3.108-.778 3.471s2.21-3.149.778-3.471z" fill="#263238"/><path d="M384.929 227.573c-.311.134-.654.424-.986.383-.331-.042-.601-.477-.778-.881h-.062c-.145.674-.052 1.409.571 1.658.622.249 1.099-.269 1.379-.912.052-.093 0-.3-.124-.248zm1.826 6.33s-.498 1.585-.623 2.351c0 .073.166.135.426.197a3.679 3.679 0 003.765-.777c.062-.062 0-.155-.093-.124a5.565 5.565 0 01-3.486.404c0-.218.934-2.683.809-2.714a6.831 6.831 0 00-1.805.103c.934-3.336 2.386-6.496 3.268-9.831a.104.104 0 00-.062-.135.104.104 0 00-.135.062 55.774 55.774 0 00-3.963 10.433c-.062.424 1.608.103 1.899.031z" fill="#263238"/><path d="M391.796 213.68a7.118 7.118 0 00-.197 4.144c1.369 3.74 5.778 3.211 7.116 4.765 1.338 1.554.508 4.144 1.629 5.605 1.566 2 3.993 1.513 4.149 2.777.156 1.264.612 5.283 2.147 5.936 1.536.653 11.266-24.864-9.439-25.983 0 0-2.718-1.419-7.324.363-5.072 1.978-7.946 9.738-7.946 9.738s.114-.103.882-.653c1.037-.787 1.535-1.554 2.323-2.072 1.235-.777 1.826-.383 3.112-1.139a13.656 13.656 0 003.548-3.481z" fill="#263238"/><path d="M392.221 212.571a13.15 13.15 0 00-.902 3.108 5.723 5.723 0 00.145 3.108 4.247 4.247 0 002.189 2.072c.944.456 2.075.663 3.039 1.181.523.27.963.674 1.276 1.171.263.512.418 1.073.457 1.647a5.74 5.74 0 00.871 2.953 3.599 3.599 0 002.656 1.43 7.562 7.562 0 013.184.466 7.663 7.663 0 00-3.195-.218 3.957 3.957 0 01-1.634-.392 3.955 3.955 0 01-1.322-1.037 5.81 5.81 0 01-1.037-3.108 4.072 4.072 0 00-.415-1.461 2.81 2.81 0 00-1.11-.964c-.903-.487-1.992-.725-2.988-1.212a5.815 5.815 0 01-1.4-.943 3.466 3.466 0 01-.965-1.398 6.028 6.028 0 010-3.295 13.699 13.699 0 011.151-3.108z" fill="#263238"/><path d="M391.734 213.473c-.3.966-.725 1.889-1.266 2.745a5.346 5.346 0 01-2.292 2.072c-.477.185-.97.324-1.473.414a2.525 2.525 0 00-1.193.643 7.813 7.813 0 01-1.037 1.129 3.265 3.265 0 01-1.391.632 3.533 3.533 0 001.214-.818c.329-.371.624-.769.882-1.192.349-.422.826-.72 1.359-.849a8.433 8.433 0 001.4-.425 5.588 5.588 0 002.158-1.844 21.675 21.675 0 001.639-2.507z" fill="#263238"/><path d="M403.404 234.659s4.263-4.465 6.338-2.88-1.649 8.433-4.461 9.023a2.736 2.736 0 01-2.134-.279 2.733 2.733 0 01-1.278-1.731l1.535-4.133z" fill="#AD6359"/><path d="M408.622 233.716v.073c-1.992.476-3.237 2.072-4.15 3.74a1.512 1.512 0 011.132-.561 1.503 1.503 0 011.161.498c.052 0 0 .104-.062.083a1.678 1.678 0 00-1.919.311c-.42.406-.792.858-1.11 1.347-.115.155-.395 0-.301-.166.301-2.393 2.655-5.501 5.249-5.325z" fill="#263238"/><path d="M392.647 254.623l2.292 7.376 9.627-8.288 2.282 3.108s-9.855 13.654-9.865 13.002l-2.448-6.392-4.596 3.936 1.214-10.722 1.494-2.02z" fill="#EBEBEB"/><path d="M390.24 261.989c.259-1.762.467-3.544.809-5.294 0-.063.114-.083.125 0 .218 1.74-.82 8.484-.944 10.111.197-.166 4.253-3.45 4.284-3.388.56 1.036 2.365 5.688 2.479 6.113 1.556-2.176 7.5-10.039 9.336-12.07.052-.052.145 0 .104.073-1.411 2.31-9.336 12.919-9.398 12.877a70.376 70.376 0 01-2.552-6.765c-.706.736-4.834 4.476-4.824 4.206.089-1.963.283-3.921.581-5.863z" fill="#263238"/><path d="M588.817 119.963H454.596v134.048h134.221V119.963z" fill="#DBDBDB"/><path d="M511.826 85.993V176.3h90.424V85.993h-90.424zm85.507 85.387h-80.601V90.893h80.601v80.487z" fill="#263238"/><path d="M498.984 199.611l7.261.508a22.352 22.352 0 002.915-13.199c-.083-1.036 2.127 5.076.757 13.468 7.666.528 18.102 1.254 27.21 1.803.342-3.554.819-6.828.819-6.828a39.724 39.724 0 001.172 6.952c1.245.083 2.469.145 3.641.207a136.89 136.89 0 011.37-15.115 48.52 48.52 0 003.807 15.395c5.798.29 9.605.373 9.336.083-8.299-10.433-1.619-15.924-3.714-24.864-2.5-10.723-11.566-12.826-10.934-20.72.509-6.465 1.847-18.161-6.224-21.052a15.798 15.798 0 00-16.867-4.113c-13.163 4.351-8.952 24.543-10.02 28.563-1.525 5.739-4.388 7.656-6.753 14.183-2.365 6.526.446 11.178.581 15.726.134 4.548-5.809 8.92-4.357 9.003z" fill="#263238"/><path d="M557.655 201.424a22.76 22.76 0 01-2.551-5.791 11.922 11.922 0 01.3-6.082 60.39 60.39 0 001.359-6.34c.341-2.23.228-4.506-.332-6.692a14.822 14.822 0 00-3.226-5.906 39.281 39.281 0 00-4.782-4.444 23.992 23.992 0 01-4.409-4.465 11.703 11.703 0 01-2.074-5.895 10.918 10.918 0 001.39 6.309 21.767 21.767 0 004.222 4.994 48.929 48.929 0 014.429 4.506 14.186 14.186 0 012.791 5.336c.479 1.983.592 4.037.332 6.06-.218 2.072-.696 4.144-1.038 6.216a21.444 21.444 0 00-.352 3.295 9.395 9.395 0 00.58 3.315 18.56 18.56 0 003.361 5.584zm-45.808-62.16a32.28 32.28 0 00-2.075 7.646c-.446 2.6-.768 5.18-1.037 7.842l-.467 3.906a19.57 19.57 0 01-.757 3.719 21.195 21.195 0 01-3.838 6.527 29.64 29.64 0 00-2.272 3.357 18.05 18.05 0 00-1.618 3.802 27.994 27.994 0 00-.758 4.009 16.999 16.999 0 000 4.144c.177 1.357.498 2.652.758 3.916.263 1.258.409 2.538.435 3.823a8.123 8.123 0 01-3.485 6.537 8.28 8.28 0 002.966-2.716 8.275 8.275 0 001.339-3.79 20.214 20.214 0 00-.156-4.04c-.176-1.326-.446-2.611-.529-3.875a20.68 20.68 0 01.944-7.501 18.021 18.021 0 011.515-3.429 28.805 28.805 0 012.188-3.16 37.41 37.41 0 002.314-3.304 16.564 16.564 0 001.711-3.771c.364-1.318.6-2.668.706-4.031.134-1.326.217-2.641.3-3.957.177-2.632.312-5.253.561-7.863a37.705 37.705 0 011.255-7.791z" fill="#263238"/><path d="M575.176 250.334c0-.156 0-.311-.083-.467.041.192.072.386.093.581a.433.433 0 00-.01-.114zm-25.975 4.589c.085.057.176.105.27.145v-.072l-.28-.063.01-.01z" fill="#4AB45E"/><path d="M512.085 182.403c-16.307 18.316-36.047 56.099-31.618 63.32 4.928 8.04 28.444-18.047 27.635-19.228-.685-1.036 6.96-23.6 12.521-40.124 5.56-16.524-4.502-8.495-8.538-3.968z" fill="#D3766A"/><path d="M512.085 182.403c-16.307 18.316-36.047 56.099-31.618 63.32 4.928 8.04 28.444-18.047 27.635-19.228-.685-1.036 6.96-23.6 12.521-40.124 5.56-16.524-4.502-8.495-8.538-3.968z" fill="#455A64"/><path d="M514.284 205.33c-1.597 4.817-3.049 9.324-4.149 12.95-2.521.114-9.896-.29-17.552-7.646a215.04 215.04 0 017.365-12.08 22.94 22.94 0 0014.336 6.776z" fill="#EBEBEB"/><path d="M496.359 254.073l4.087-27.713s-6.556-11.396-2.749-19.684c1.92-4.144 15.104-24.491 22.199-29.639 6.66-4.828 15.789-.425 18.89 3.771 8.921 12.079 13.268 33.815 18.247 73.234l-60.674.031z" fill="#455A64"/><path d="M508.299 189.841a194.078 194.078 0 00-3.942 5.616c.353-.736.706-1.472 1.037-2.207 0-.052 0-.104-.072 0a58.39 58.39 0 00-1.349 2.797 205.537 205.537 0 00-5 7.729 20.53 20.53 0 00-1.773 3.46 15.41 15.41 0 00-.861 3.667 18.39 18.39 0 00-.063 3.782c.085 1.293.268 2.578.55 3.843.319 1.441.77 2.849 1.349 4.206.29.664.591 1.316.923 1.969.332.653.902 1.782.902 1.823-.124.663-.249 1.129-.332 1.689-.083.559-.176 1.14-.259 1.709-.176 1.14-1.649 12.204-1.815 13.344a295.514 295.514 0 00-.903 6.786c-.155 1.305-.249 2.611-.425 3.906 0 .051.073.072.083 0 .187-1.13.467-2.238.664-3.367.197-1.13.415-2.259.633-3.388.425-2.279 2.074-14.504 2.427-16.794.104-.632.197-1.264.301-1.906.139-.682.219-1.376.238-2.072a50.957 50.957 0 01-2.821-7.086 24.798 24.798 0 01-.799-3.771 19.635 19.635 0 010-3.74 16.94 16.94 0 01.716-3.678 19.785 19.785 0 011.597-3.502c1.328-2.351 2.739-4.662 4.15-6.951a488.891 488.891 0 014.937-7.76s-.062-.145-.093-.104z" fill="#263238"/><path d="M480.467 245.723c4.15 5.336 14.762 5.843 41.338 9.614 3.672.529 14.346-24.397 10.446-25.154-4.907-.963-24.17-3.615-25.601-3.626-12.085-.145-29.015 15.551-26.183 19.166z" fill="#D3766A"/><path d="M526.929 229.251s11.235 1.108 16.961 3.512a39.905 39.905 0 0115.062 11.769c4.315 5.46 10.954 21.652 6.618 24.377-3.921 2.466-9.875-14.431-9.875-14.431s8.91 16.223 3.641 18.326c-5.27 2.103-11.069-17.902-11.069-17.902s8.787 16.877 3.009 18.182c-4.367 1.036-10.633-16.825-10.633-16.825s7.448 14.556 2.998 15.758c-4.917 1.336-11.732-14.742-11.732-14.742-11.826 1.17-17.946-3.108-21.93-6.662-1.016-.86 16.95-21.362 16.95-21.362z" fill="#D3766A"/><path d="M552.915 248.676c1.12 1.865 2.261 3.75 3.205 5.708.944 1.958 1.826 3.958 2.583 5.999a36.448 36.448 0 012.199 8.215c-1.099-4.942-4.377-12.007-5.332-13.975-.954-1.969-1.784-3.958-2.728-5.916l.073-.031zm-7.148 3.284c1.318 2.445 2.729 4.828 3.942 7.325 1.214 2.496 2.075 4.972 3.112 7.542.083.197 0 .176-.145 0-1.131-2.528-2.375-4.776-3.537-7.252s-2.23-5.066-3.486-7.532c.032-.104.094-.124.114-.083zm-6.649 1.709a61.453 61.453 0 015.187 11.676c.072.197-.093.156-.176-.052-1.65-3.905-2.905-6.993-5.115-11.541-.051-.072.063-.155.104-.083z" fill="#263238"/><path d="M535.415 229.448l-21.877 25.713s-29.876-2.072-33.32-9.945c-3.444-7.874 19.305-19.322 26.401-18.648 7.095.673 28.796 2.88 28.796 2.88z" fill="#455A64"/><path d="M495.104 229.924c1.722-1.181 6.598-3.957 11.514-3.408v.083c-4.035.124-9.719 2.393-11.472 3.388-.042.031-.083-.042-.042-.063zm13.807 20.793c8.6-9.096 16.255-19.964 17.728-21.756.062-.083-.083-.187-.145-.104-1.349 1.844-11.411 13.313-17.739 21.756-.072.093.073.187.156.104z" fill="#263238"/><path d="M486.247 194.608l-9.698 47.433 36.478 7.439 9.697-47.434-36.477-7.438z" fill="#4AB45E"/><path d="M513.773 197.658l-17.285-3.543-1.076 5.236 17.284 3.544 1.077-5.237z" fill="#EBEBEB"/><path d="M509.834 196.876l-2.126-.446.487-2.403-5.166-1.067-.498 2.414-2.126-.435.902-4.393 9.461 1.937-.934 4.393z" fill="#EBEBEB"/><path d="M543.153 186.588c17.573 22.326 24.201 62.492 14.45 65.6-8.91 2.859-45.559-6.299-56.482-10.008-3.206-1.088 6.701-25.983 10.134-24.864 4.15 1.399 26.805 6.765 27.251 6.776.944 0-4.097-24.678-6.224-35.877-3.05-15.581 4.274-10.018 10.871-1.627z" fill="#D3766A"/><path d="M481.951 207.972a4 4 0 00-.353 4.579 5.992 5.992 0 00-3.268 2.424c-1.265 2.072 1.505 5.024 1.505 5.024a7.355 7.355 0 00-3.04 3.108c-1.037 2.145 1.369 5.481 1.369 5.481a6.43 6.43 0 00-.954 4.403c.768 4.082 6.67 6.402 10.373 7.915 3.704 1.513 15.768 2.29 18.04 2.673l9.917-23.901s-14.845-11.53-19.502-12.691c-3.87-.974-12.002-1.419-14.087.985z" fill="#D3766A"/><path d="M481.92 212.24c4.419 0 8.578 1.367 12.811 2.465.093 0 0 .166 0 .146-4.15-1.14-8.569-1.43-12.801-2.404a.105.105 0 01-.075-.027.102.102 0 01-.007-.146.099.099 0 01.072-.034zm-1.878 7.48c1.002.101 1.985.335 2.925.694 1.038.321 2.075.653 3.029 1.036 2.075.704 4.015 1.461 5.996 2.269.083 0 0 .176 0 .145a207.466 207.466 0 00-6.068-1.979c-1.038-.311-2.075-.611-3.06-.901a13.91 13.91 0 01-2.863-.953.16.16 0 01-.104-.061.142.142 0 01-.027-.055.138.138 0 01-.004-.061.143.143 0 01.019-.057.165.165 0 01.096-.073.14.14 0 01.061-.004zm-1.795 8.878a8.128 8.128 0 012.604.777c.903.342 1.826.674 2.739 1.036 1.825.653 3.661 1.316 5.508 1.907.016.005.03.016.039.03a.083.083 0 01-.039.125c-1.878-.601-3.776-1.171-5.653-1.782l-2.76-.922a7.27 7.27 0 01-2.438-1.036.074.074 0 01-.025-.005.071.071 0 01-.037-.037.074.074 0 01-.005-.025c0-.009.002-.018.005-.026a.086.086 0 01.015-.022.086.086 0 01.022-.015.074.074 0 01.025-.005z" fill="#263238"/><path d="M538.205 223.087c.28-.176-4.979-24.004-6.742-36.447-1.764-12.442 3.796-11.24 11.794-.611 8.579 11.396 23.859 42.227 18.558 65.061-1.712 7.397-54.75-2.963-54.75-2.963l7.147-30.448s23.527 5.667 23.993 5.408z" fill="#455A64"/><path d="M559.792 220.828c-8.651 2.528-18.039 1.243-21.867.529-.55-2.994-1.888-9.48-3.257-16.483 9.087 1.036 15.249-.29 18.62-1.419a117.5 117.5 0 016.504 17.373z" fill="#EBEBEB"/><path d="M513.973 244.998c3.226-10.608 5-22.232 5.457-24.242 0-.093-.135-.114-.146 0-.342 1.989-3.827 15.063-5.477 24.232-.02.083.135.103.166.01zm34.17-18.389c-1.037-.176-28.101-7.791-34.014-8.713-.094 0 0-.321.083-.3a250.245 250.245 0 0134.294 8.516c1.349.539 1.546.829-.363.497z" fill="#263238"/><path d="M537.915 223.325s-1.784-9.179-2.075-9.749c-.29-.57-1.037-1.896-1.328-2.507-.591-1.233-1.099-2.497-1.639-3.75 0-.104.115-.176.156-.073.591 1.202 1.276 2.362 1.971 3.512.342.56.685 1.13 1.037 1.679 0 0-1.67-8.91-1.908-10.485 0-.114.103-.155.145 0 .508 1.585 4.056 19.519 4.543 21.508a6.253 6.253 0 01-.902-.135zm-19.958 26.687c-1.774-.487-8.859-1.626-10.581-1.875a22.37 22.37 0 00.622-3.874.092.092 0 00-.03-.032.09.09 0 00-.042-.011.092.092 0 00-.043.011.092.092 0 00-.03.032 31.055 31.055 0 00-1.297 4.434c0 .145 9.544 1.346 11.411 1.44.021-.021.041-.104-.01-.125z" fill="#263238"/><path d="M515.581 179.285s.705 7.003 6.525 8.091c5.819 1.088 16.68-6.537 16.68-6.537a16.195 16.195 0 00-12.251-5.885c-7.583-.01-10.954 4.331-10.954 4.331z" fill="#D3766A"/><path d="M532.272 177.327c-.311 1.036-5.799 7.687-10.664 7.179-1.587-.176-1.037-8.858-1.037-8.858l-.104-.642-1.504-9.096 10.954-6.216 1.577-.808s.249 2.517.518 5.656v.446c0 .155 0 .342.052.507 0 .467.094.943.125 1.42.031.476.062.725.083 1.098l.062 1.14a59.782 59.782 0 01-.062 8.174z" fill="#D3766A"/><path d="M531.981 164.584a18.524 18.524 0 01-11.545 10.422l-1.504-9.096 10.954-6.216 1.577-.808s.259 2.559.518 5.698z" fill="#263238"/><path d="M508.413 148.93c-4.263 15.602 4.627 19.922 7.998 20.834 3.112.829 13.579 3.263 19.44-11.821 5.86-15.084-.063-22.005-6.971-24.273-6.909-2.269-16.203-.353-20.467 15.26z" fill="#D3766A"/><path d="M514.046 145.874h1.12c.391.064.792-.001 1.141-.187a.558.558 0 00.166-.684 1.423 1.423 0 00-1.286-.652 2.076 2.076 0 00-1.463.414.624.624 0 00-.015.968.634.634 0 00.337.141zm11.141 1.554a9.02 9.02 0 01-1.038-.467 1.778 1.778 0 01-.954-.663.57.57 0 01.156-.683 1.398 1.398 0 011.452 0c.492.19.892.561 1.12 1.036a.614.614 0 01-.139.605.611.611 0 01-.597.172zm-3.579 4.993s.062.073 0 .114c-.301 1.036-.456 2.331.425 2.922v.051c-1.11-.455-.871-2.134-.425-3.087z" fill="#263238"/><path d="M522.842 151.541c1.764.29 1.038 3.781-.58 3.501-1.619-.279-.882-3.75.58-3.501z" fill="#263238"/><path d="M523.496 151.862c.259.259.487.673.851.787.363.114.809-.176 1.161-.466 0 0 .063 0 0 .052-.134.673-.529 1.305-1.265 1.253-.737-.052-1.038-.735-1.038-1.44.042-.124.187-.29.291-.186zm-8.319-1.575s-.094 0-.104.083c-.197 1.088-.602 2.289-1.66 2.435v.062c1.224.093 1.753-1.513 1.764-2.58z" fill="#263238"/><path d="M514.461 148.961c-1.712-.508-2.594 2.942-1.038 3.408 1.556.467 2.469-2.983 1.038-3.408z" fill="#263238"/><path d="M513.683 149.002c-.322.114-.675.373-1.038.311s-.57-.518-.715-.932h-.063c-.186.652-.145 1.398.457 1.688.601.291 1.11-.196 1.442-.808.093-.093.041-.3-.083-.259zm5.166 11.583c-.301.207-.612.518-1.038.487a2.945 2.945 0 01-1.12-.456h-.062a1.508 1.508 0 001.286.818 1.19 1.19 0 001.037-.828c.021-.021-.051-.052-.103-.021zm-3.652-4.88s-.57 1.565-.736 2.321c0 .072.155.145.415.217a3.657 3.657 0 003.796-.58c.073-.062 0-.155-.093-.124a5.548 5.548 0 01-3.496.218c0-.218 1.038-2.632.955-2.673a6.653 6.653 0 00-1.816 0c1.11-3.284 2.728-6.361 3.776-9.645 0-.125-.135-.197-.187-.094a55.92 55.92 0 00-4.502 10.215c-.135.435 1.556.207 1.888.145z" fill="#263238"/><path d="M515.177 158.005a4.389 4.389 0 001.338 1.761c.331.243.73.377 1.141.384.892 0 1.12-.767 1.141-1.461a4.657 4.657 0 00-.104-1.098 5.74 5.74 0 01-3.516.414z" fill="#263238"/><path d="M516.515 159.766c.331.243.73.377 1.141.384.892 0 1.12-.767 1.141-1.461a2.076 2.076 0 00-2.282 1.077z" fill="#FF9CBD"/><path d="M534.979 157.684c-1.67-.59-4.751-6.516-2.531-14.732 0 0-1.483 7.522-1.234 8.754.249 1.233-1.722-3.336 0-9.987a27.777 27.777 0 01-7.791 1.575c-3.361 0-5.269-.601-5.425-.891-.156-.29 4.844-.414 6.494-1.492 0 0-9.398 1.482-13.309.674-.446-.094 1.628-9.324 8.651-11.49 7.023-2.165 15.187 4.683 17.012 7.833 0 0 2.832 1.263 4.793 6.557 1.96 5.294-4.865 13.831-6.66 13.199z" fill="#263238"/><path d="M532.562 158.026s4.378-4.341 6.411-2.694c2.033 1.648-1.898 8.382-4.72 8.879a2.747 2.747 0 01-2.911-1.073c-.212-.3-.362-.64-.439-.999l1.659-4.113z" fill="#D3766A"/><path d="M537.801 157.239v.072c-1.992.415-3.289 1.958-4.295 3.616a1.5 1.5 0 011.152-.536 1.5 1.5 0 011.151.536s0 .103-.073.083a1.677 1.677 0 00-1.929.248c-.424.399-.806.84-1.141 1.316-.125.155-.405 0-.301-.166.405-2.424 2.842-5.397 5.436-5.169z" fill="#263238"/><path d="M549.232 254.933l.27.063-.27-.063z" fill="#D3766A"/><path d="M575.093 249.867c.041.192.072.386.093.581a.435.435 0 000-.114l-.093-.467z" fill="#4AB45E"/><path d="M575.093 249.867c.041.192.072.386.093.581a.435.435 0 000-.114l-.093-.467zm-27.085 7.884l.84.197-.84-.197z" fill="#4AB45E"/><path d="M575.093 249.867c.041.192.072.386.093.581a.435.435 0 000-.114l-.093-.467z" fill="#DBDBDB"/><path d="M278.509 76.71v40.798h40.902V76.71h-40.902zm3.112 37.752V79.787h34.699v34.675h-34.699z" fill="#EBEBEB"/><path d="M446.339 66.278H307.575v127.625h138.764V66.278z" fill="#37474F"/><path d="M401.744 129.567c16.909 17.115 38.174 53.116 34.232 60.42-4.419 8.132-27.956-15.862-27.873-17.271.073-1.036-8.205-22.926-14.523-38.829-6.317-15.902 3.984-8.557 8.164-4.32z" fill="#F7A9A0"/><path d="M407.927 172.748c-.716-2.342-11.992-31.174-15.208-40.301-3.215-9.127-.238-11.935 8.963-3.584 9.201 8.35 29.367 36.26 33.973 51.064 4.429 14.245-2.926 14.245-12.594 7.687-7.977-5.377-15.134-14.866-15.134-14.866z" fill="#4AB45E"/><path opacity=".1" d="M400.084 129.805a7.434 7.434 0 01-1.597 3.481 7.094 7.094 0 01.57-1.844 7.363 7.363 0 011.027-1.637zm27.884 39.658a6.49 6.49 0 00-.571 1.845 6.802 6.802 0 001.038-1.637 7.03 7.03 0 00.57-1.844 6.476 6.476 0 00-1.037 1.636zm-9.969-15.156a6.632 6.632 0 00-.57 1.854 7.057 7.057 0 001.037-1.647 6.79 6.79 0 00.57-1.844 6.996 6.996 0 00-1.037 1.637zm-10.373-3.802a6.502 6.502 0 00-1.847-.57 7.463 7.463 0 003.486 1.595 6.784 6.784 0 00-1.618-1.025h-.021zm9.336 15.322a6.718 6.718 0 00-1.857-.57c.499.42 1.054.769 1.649 1.036a6.835 6.835 0 001.847.57 6.996 6.996 0 00-1.618-1.036h-.021zm-7.593-26.242a6.502 6.502 0 00-1.847-.57 6.787 6.787 0 001.639 1.036c.584.28 1.206.472 1.847.57a6.812 6.812 0 00-1.619-1.036h-.02zm-5.789 20.461c.22.609.524 1.185.903 1.71a7.502 7.502 0 00-1.338-3.595c.066.646.22 1.28.456 1.885h-.021zm19.533 18.255a6.81 6.81 0 00.903 1.709 7.502 7.502 0 00-1.338-3.595c.06.647.214 1.282.456 1.886h-.021zm-13.153-3.108l.342.404a6.54 6.54 0 001.587-.85 6.757 6.757 0 00-1.908.477l-.021-.031zm23.143 10.898a6.798 6.798 0 001.711-.901c-.647.054-1.282.2-1.888.435a6.487 6.487 0 00-1.711.901 7.16 7.16 0 001.908-.404l-.02-.031zm-34.72-42.258a8.245 8.245 0 00-1.224.57l.093.259c.444-.078.878-.2 1.297-.363a6.552 6.552 0 001.722-.901 7.033 7.033 0 00-1.867.466l-.021-.031z" fill="#000"/><path d="M405.904 193.934h-64.315s10.218-50.35 34.865-72.147c3.05-2.694 9.917-2.072 14.409.145 1.597.797 7.344 8.826 8.983 16.42 1.639 7.594 6.245 55.354 6.058 55.582z" fill="#4AB45E"/><path d="M400.447 141.491c.509 1.699.924 3.45 1.266 5.18a1.43 1.43 0 010-.207c0-1.036 0-1.999.135-2.994 0 0 .093-.062.093 0 .132 1 .159 2.01.083 3.015 0 .466-.052.943-.093 1.419.135.788.259 1.585.353 2.373.197 1.492.695 7.076.736 8.184 0 .228-.259.269-.322 0-.3-1.119-1.099-6.879-1.358-8.36a80.989 80.989 0 01-1.038-8.672c.031 0 .125 0 .145.062z" fill="#263238"/><path opacity=".1" d="M380.531 134.934a6.873 6.873 0 01-.581 1.844 6.48 6.48 0 01-1.038 1.636 6.993 6.993 0 01.581-1.844 6.649 6.649 0 011.038-1.636zm-8.714 25.568a6.45 6.45 0 00-.57 1.844 7.444 7.444 0 001.597-3.481 6.76 6.76 0 00-1.027 1.637zm-20.881 9.148a6.634 6.634 0 00-.571 1.854 6.976 6.976 0 001.037-1.637c.28-.587.472-1.211.571-1.854a6.996 6.996 0 00-1.037 1.637zm15.352 16.4a6.45 6.45 0 00-.57 1.844 7.38 7.38 0 001.037-1.637 7.4 7.4 0 00.57-1.854 6.69 6.69 0 00-1.037 1.647zm26.794-31.681a7.013 7.013 0 00-.57 1.854 6.709 6.709 0 001.037-1.647 6.453 6.453 0 00.571-1.844 7.325 7.325 0 00-1.038 1.637zm8.444 17.394a6.628 6.628 0 00-.57 1.855 6.996 6.996 0 001.037-1.637c.28-.587.472-1.212.571-1.855a7.255 7.255 0 00-1.038 1.637zm-20.435 12.536a7.39 7.39 0 00-.571 1.854 6.694 6.694 0 001.038-1.647c.28-.584.475-1.205.581-1.844a6.986 6.986 0 00-1.048 1.637zm-19.575-33.908a6.97 6.97 0 00-.581 1.844 6.503 6.503 0 001.038-1.637c.28-.584.475-1.205.581-1.844a6.636 6.636 0 00-1.038 1.637zm24.295-5.719a6.502 6.502 0 00-1.847-.57 6.787 6.787 0 001.639 1.036 6.954 6.954 0 001.847.57 6.787 6.787 0 00-1.639-1.036zm4.056 20.658a6.502 6.502 0 00-1.847-.57 7.147 7.147 0 001.639 1.036 6.87 6.87 0 001.847.57 6.48 6.48 0 00-1.639-1.036zm-37.801 21.89a6.873 6.873 0 00-1.846-.58 6.462 6.462 0 001.639 1.036 7.08 7.08 0 001.846.58 6.518 6.518 0 00-1.639-1.036zm38.465 4.144a6.988 6.988 0 00-1.847-.569c.494.422 1.046.77 1.639 1.036l.394.176c.343 0 .675 0 1.038.062a7.431 7.431 0 00-1.224-.673v-.032zm-24.015-20.906a6.863 6.863 0 00-1.846-.57 6.462 6.462 0 001.639 1.036c.585.278 1.206.47 1.846.57a7.069 7.069 0 00-1.639-1.005v-.031zm19.295-44.103a6.88 6.88 0 00-1.847-.58 6.787 6.787 0 001.639 1.036c.588.27 1.209.462 1.847.57a6.475 6.475 0 00-1.639-.994v-.032zm4.149 9.583c.216.611.52 1.187.902 1.71a7.028 7.028 0 00-.435-1.886 6.925 6.925 0 00-.903-1.709c.059.657.213 1.303.457 1.917l-.021-.032zm10.28 47.812c.213.612.517 1.188.902 1.709a7.486 7.486 0 00-1.338-3.595c.054.646.201 1.281.436 1.886zm-27.583-35.773c.222.608.526 1.183.903 1.709a6.743 6.743 0 00-.426-1.885 7.102 7.102 0 00-.902-1.71 7.14 7.14 0 00.373 1.886h.052zm7.946 21.031c.216.611.52 1.186.903 1.709a6.836 6.836 0 00-.436-1.886 6.956 6.956 0 00-.902-1.709c.029.643.151 1.278.363 1.886h.072zm-36.835 24.667a1.866 1.866 0 000 .259h.166l-.166-.259zm18.091-.083a6.828 6.828 0 00-.903-1.72c.053.646.2 1.282.436 1.886l.062.176h.519c-.114-.114-.114-.228-.114-.342zm-3.693-14.825c.219.609.523 1.184.902 1.709a6.645 6.645 0 00-.435-1.885 6.639 6.639 0 00-.903-1.71 6.87 6.87 0 00.384 1.886h.052zm15.56-49.5c.211.612.515 1.189.902 1.709a6.87 6.87 0 00-.435-1.886 6.96 6.96 0 00-.903-1.709c.039.644.172 1.279.394 1.886h.042zm17.178 48.515a6.938 6.938 0 001.712-.901 6.754 6.754 0 00-1.888.425 7.112 7.112 0 00-1.712.901 6.727 6.727 0 001.888-.425zm-16.846 15.458a6.801 6.801 0 001.711-.902 7.516 7.516 0 00-3.599 1.337 6.804 6.804 0 001.888-.435zm-28.62-13.997c0 .145-.094.29-.135.435.31-.152.605-.332.882-.538a5.522 5.522 0 00-.747.103zm14.668-17.809a6.85 6.85 0 001.722-.901 6.684 6.684 0 00-1.888.435 6.837 6.837 0 00-1.722.902 7.09 7.09 0 001.888-.436zm13.485 17.012a6.803 6.803 0 001.753-.85 7.518 7.518 0 00-3.6 1.336 6.776 6.776 0 001.857-.486h-.01zm7.977-24.398a7.235 7.235 0 001.722-.902 6.719 6.719 0 00-1.888.425 6.971 6.971 0 00-1.712.901 6.685 6.685 0 001.878-.424zm16.96-9.718a6.536 6.536 0 001.722-.901 6.665 6.665 0 00-1.888.435 6.608 6.608 0 00-1.711.901 6.702 6.702 0 001.919-.435h-.042zm-30.321-5.677a6.775 6.775 0 001.712-.902 7.52 7.52 0 00-3.6 1.337 6.81 6.81 0 001.93-.435h-.042z" fill="#000"/><path d="M320.832 101.968c-.135-3.108.488-17.27 1.546-21.176 1.058-3.906 4.917-14.939 7.998-14.431 3.08.507 2.209 3.822 2.209 3.822s2.365-4.403 5.425-3.615c3.061.787 1.525 5.916 1.525 5.916s2.76-4.341 5.757-3.337c2.998 1.005.592 5.895.592 5.895s2.334-4.082 4.45-2.217c2.541 2.238-2.625 9.324-3.465 13.686-.197 1.036-2.448 20.544-2.448 20.544l-23.589-5.087z" fill="#F7A9A0"/><path d="M346.081 74.649c-3.797 5.18-4.554 8.122-4.969 14.431 0 .124-.197.135-.197 0-.156-6.216.27-10.028 4.917-14.638.228-.208.467-.032.249.207zm-6.235-2.539c-3.464 5.73-4.315 8.9-5.248 15.468 0 .093-.166.083-.166 0 .373-6.527.881-10.36 5.093-15.54.197-.3.477-.197.321.073zm-7.302-1.564c-2.946 5.791-4.025 9.23-4.15 15.727a.118.118 0 01-.045.064.122.122 0 01-.074.024.122.122 0 01-.074-.024.118.118 0 01-.045-.064c-.56-6.63.757-10.93 4.149-15.81.29-.32.425-.28.239.083z" fill="#263238"/><path d="M344.224 111.126s5.861-5.522 7.904-8.505c2.044-2.984 5.55-16.939 2.573-17.871-3.838-1.192-7.448 6.454-8.724 10.432 0 0-8.879-2.776-12.655 2.155-3.776 4.931 10.902 13.789 10.902 13.789z" fill="#F7A9A0"/><path d="M353.56 84.77c-4.284 1.43-5.622 6.755-7.158 10.526a.362.362 0 01-.252.238.374.374 0 01-.339-.072c-3.797-.922-9.419-1.109-12.448 1.626a.095.095 0 01-.065.034.098.098 0 01-.07-.023.097.097 0 01-.033-.065.093.093 0 01.023-.07c2.915-3.388 8.454-3.647 12.552-2.383 1.504-3.885 3.112-9.179 7.831-9.852-.041-.01-.041.031-.041.041z" fill="#263238"/><path d="M380.043 129.298c-3.859 6.672-26.161 27.236-45.643 30.8-2.634.477-12.676-1.637-14.782-8.288-3.744-11.852-.746-36.322 1.162-51.054.374-2.87 27.116 3.035 26.421 7.428-.767 4.869-3.631 22.74-3.184 22.947 1.597.736 18.672-6.64 29.906-9.054 7.987-1.72 9.097 2.082 6.12 7.221z" fill="#F7A9A0"/><path d="M317.036 108.029l30.476 6.589s-2.769 15.54-2.23 15.467c.539-.072 21.929-7.884 30.176-8.702 8.247-.819 8.237 2.807 4.056 9.603-4.18 6.797-31.566 29.547-45.062 29.547-6.867 0-13.257-4.393-14.522-6.496-3.849-6.485-2.894-46.008-2.894-46.008z" fill="#455A64"/><path d="M317.036 108.029l30.476 6.589s-2.769 15.54-2.23 15.467c.539-.072 21.929-7.884 30.176-8.702 8.247-.819 8.237 2.807 4.056 9.603-4.18 6.797-31.566 29.547-45.062 29.547-6.867 0-13.257-4.393-14.522-6.496-3.849-6.485-2.894-46.008-2.894-46.008z" fill="#4AB45E"/><path opacity=".1" d="M360.707 129.702a6.804 6.804 0 00-.57 1.844 6.5 6.5 0 001.037-1.637c.28-.583.472-1.205.571-1.844a7.12 7.12 0 00-1.038 1.637zm-24.211 27.174a6.453 6.453 0 00-.571 1.844 7.446 7.446 0 001.598-3.481 6.978 6.978 0 00-1.027 1.637zm-17.946-18.648a6.494 6.494 0 00-.581 1.844 6.81 6.81 0 001.037-1.637 7.225 7.225 0 00.571-1.844 6.663 6.663 0 00-1.027 1.637zm26.525.073a6.956 6.956 0 00-.571 1.854 6.528 6.528 0 001.037-1.647c.28-.584.476-1.205.581-1.844a6.886 6.886 0 00-1.047 1.647v-.01zm-13.299 7.687a7.046 7.046 0 00-.571 1.844 6.503 6.503 0 001.038-1.637c.28-.584.475-1.205.581-1.844a6.8 6.8 0 00-1.048 1.637zm1.183-18.711a6.675 6.675 0 00-.571 1.845 7.455 7.455 0 001.598-3.481 6.745 6.745 0 00-1.079 1.636h.052zm-13.631-13.913a6.827 6.827 0 00-.581 1.844 6.21 6.21 0 001.037-1.637 6.945 6.945 0 00.581-1.844 6.779 6.779 0 00-1.037 1.637zm54.802 15.716a6.757 6.757 0 00-.902-1.709c.053.646.199 1.281.436 1.885.211.611.512 1.187.892 1.71a6.744 6.744 0 00-.405-1.876l-.021-.01zm-18.049 12.432a6.925 6.925 0 00-.903-1.709 6.75 6.75 0 00.436 1.885c.213.612.517 1.188.902 1.71a7.018 7.018 0 00-.415-1.865l-.02-.021zm-13.558-14.017a6.775 6.775 0 00-.903-1.709 7.506 7.506 0 001.338 3.595 6.738 6.738 0 00-.414-1.865l-.021-.021zm-1.753 20.285a6.775 6.775 0 00-.903-1.709 6.75 6.75 0 00.436 1.885c.215.611.519 1.187.902 1.709a6.733 6.733 0 00-.415-1.864l-.02-.021zm-17.386-2.186a6.556 6.556 0 00-.903-1.709c.061.645.207 1.279.436 1.885.218.61.522 1.186.903 1.709a6.662 6.662 0 00-.415-1.864l-.021-.021zm5.487-28.677a6.818 6.818 0 00-.902-1.719c.05.649.194 1.287.425 1.896a7.32 7.32 0 00.903 1.709 6.661 6.661 0 00-.405-1.865l-.021-.021zm-2.074 16.266a6.932 6.932 0 00-.903-1.71c.054.646.201 1.281.436 1.886.215.611.519 1.187.902 1.709a6.66 6.66 0 00-.394-1.865l-.041-.02zm41.286 5.045a6.804 6.804 0 00-1.712.901 6.848 6.848 0 001.888-.435 6.804 6.804 0 001.712-.901c-.647.054-1.283.2-1.888.435zm-32.241-.746a7.364 7.364 0 00-1.711.901 6.665 6.665 0 001.888-.435 6.608 6.608 0 001.711-.901 6.744 6.744 0 00-1.898.394l.01.041zm3.05-19.124a6.938 6.938 0 00-1.712.901 6.736 6.736 0 001.878-.435 6.308 6.308 0 001.712-.902 6.739 6.739 0 00-1.888.394l.01.042zm-17.303 5.998a6.914 6.914 0 00-1.711.901 7.36 7.36 0 003.599-1.326 7.037 7.037 0 00-1.898.384l.01.041zm28.766 25.9a7.148 7.148 0 00-1.712.901 7.367 7.367 0 003.6-1.326c-.65.05-1.29.193-1.899.425h.011zm-23.164 5.066a6.804 6.804 0 00-1.712.901 6.65 6.65 0 001.888-.435 6.598 6.598 0 001.712-.901 6.759 6.759 0 00-1.898.435h.01zm24.969-25.755a6.971 6.971 0 00-1.712.901 7.356 7.356 0 003.6-1.326 6.69 6.69 0 00-1.899.425h.011z" fill="#000"/><path d="M345.521 130.22a46.644 46.644 0 01-1.214 6.879c-.508 2.3-1.234 4.527-1.909 6.775h-.083c.592-2.258 1.038-4.569 1.515-6.858.477-2.29.84-4.579 1.431-6.838 0-.166.27-.114.26.042zm.197-9.863c-3.527-.87-7.096-1.564-10.674-2.238-3.579-.673-7.158-1.367-10.747-1.958-2.075-.331-4.067-.673-6.11-.943 0 0-.073.083 0 .094 3.516.88 7.095 1.585 10.664 2.289 3.568.705 7.157 1.368 10.736 2 2.075.352 4.066.673 6.11.932.073.021.125-.145.021-.176zm10.062 31.09c.56-.497 1.182-.922 1.774-1.378.591-.455 1.141-.901 1.722-1.336l3.527-2.704c2.344-1.813 4.647-3.688 6.971-5.532a111.195 111.195 0 003.941-3.191.072.072 0 01.019-.011.076.076 0 01.021-.003.065.065 0 01.021.006c.007.003.012.008.017.013a.052.052 0 01.011.019.076.076 0 01.003.021.083.083 0 01-.006.021.07.07 0 01-.013.017 150.584 150.584 0 01-4.875 4.413l.622-.3a28.012 28.012 0 001.888-1.036s.093.052 0 .083c-.584.411-1.194.785-1.826 1.119-.311.165-.622.331-.944.476l-.467.197a49.43 49.43 0 01-1.13.953 150.834 150.834 0 01-7.054 5.418c-.692.477-1.366.943-2.023 1.399-.716.466-1.411.984-2.168 1.409a.067.067 0 01-.029-.031.067.067 0 01-.002-.042zm30.249-14.286l3.558-5.408 3.35 4.548-1.369 4.02-3.797.083-1.742-3.243z" fill="#263238"/><path d="M387.771 140.404l-6.307 41.885 6.401 14.763 5.778-15.219-2.075-41.512-3.797.083z" fill="#263238"/><path d="M390.904 131.37c-3.703.891-10.104-4.724-12.645-9.324-.176-.311.29-3.626.653-7.687.218-2.466.395-5.18.384-7.739l15.851 3.74a39.837 39.837 0 00-1.463 9.686c-.001.349.038.696.114 1.036v.176c.311 1.979.643 9.231-2.894 10.112z" fill="#F7A9A0"/><path d="M380.365 106.91c.487 3.336 2.749 14.317 11.784 14.504a9.96 9.96 0 001.628-.094 1.292 1.292 0 010-.176 5.381 5.381 0 01-.124-1.036c.095-3.276.59-6.529 1.473-9.686l-14.761-3.512z" fill="#263238"/><path d="M375.603 88.977c-1.213 5.729 3.175 21.6 7.469 24.864 6.224 4.703 15.705 4.361 19.523-2.953 3.703-7.086-2.376-27.661-7.106-30.53-6.971-4.29-18.07.144-19.886 8.619z" fill="#F7A9A0"/><path d="M389.753 98.383s-.073.073-.063.114c.322 1.036.519 2.331-.352 2.953v.052c1.161-.487.892-2.165.415-3.119z" fill="#263238"/><path d="M388.487 97.524c-1.753.331-.954 3.822.674 3.512 1.629-.311.799-3.792-.674-3.512zm7.718-.736c0-.052.093 0 .104.073.207 1.087.643 2.3 1.701 2.434v.062c-1.224.094-1.784-1.533-1.805-2.569z" fill="#263238"/><path d="M396.91 95.42c1.712-.528 2.645 2.932 1.038 3.42-1.608.486-2.469-2.974-1.038-3.42z" fill="#263238"/><path d="M386.755 96.25c.446-.229.819-.519 1.244-.788.426-.27.882-.508 1.11-1.036a.747.747 0 00-.321-.86 1.86 1.86 0 00-1.888.228 2.774 2.774 0 00-1.286 1.523.806.806 0 00.69 1.011.812.812 0 00.451-.079zm11.099-2.891a14.08 14.08 0 01-1.473 0 2.303 2.303 0 01-1.483-.332.755.755 0 01-.166-.911 1.878 1.878 0 011.742-.757 2.75 2.75 0 011.878.653.813.813 0 01.162.825.816.816 0 01-.66.522z" fill="#A6A6A6"/><path d="M391.786 104.858a3.755 3.755 0 002.842 1.036 4.586 4.586 0 001.338-.238l.239-.083.238-.093a.28.28 0 00.156-.29.543.543 0 000-.114v-.093c-.166-.839-.539-2.072-.539-2.072.342.083 2.074.425 1.929 0a57.055 57.055 0 00-3.983-10.806.108.108 0 00-.055-.059.105.105 0 00-.142.132c.871 3.45 2.334 6.724 3.257 10.173a6.505 6.505 0 00-1.857-.124c-.114.062.757 2.393.809 2.777a5.188 5.188 0 01-4.087-.311c-.156 0-.228.093-.145.165z" fill="#263238"/><path d="M395.385 105.511a4.534 4.534 0 01-1.525 1.699 2.07 2.07 0 01-1.182.29c-.923-.072-1.037-.87-1.037-1.574.017-.38.084-.756.197-1.119a5.835 5.835 0 003.547.704z" fill="#263238"/><path d="M393.86 107.21a2.07 2.07 0 01-1.182.29c-.923-.072-1.037-.87-1.037-1.574a2.072 2.072 0 012.219 1.284z" fill="#FF9CBD"/><path d="M391.423 90.945c.575-.05 1.147-.137 1.711-.26.571-.144 1.1-.403 1.67-.538a9.587 9.587 0 013.309 0c.094 0 .094.073 0 .062a8.11 8.11 0 00-3.454.28 10.29 10.29 0 01-2.78.673 10.384 10.384 0 00-6.079 2.01 10.32 10.32 0 015.623-2.227zm-.374-1.513a10.84 10.84 0 001.629-.238c.539-.135 1.037-.383 1.587-.508a9.074 9.074 0 013.112 0c.093 0 .093.073 0 .063a7.946 7.946 0 00-3.278.269 9.597 9.597 0 01-2.635.632 9.843 9.843 0 00-5.757 1.917 9.873 9.873 0 015.342-2.135z" opacity=".2" fill="#000"/><path d="M377.18 102.652s-5.56-9.148-5.041-14.442c.228-2.393 3.485-4 3.485-4a5.398 5.398 0 011.712-5.438c2.832-2.663 9.688-2.072 9.688-2.072s4.44-6.413 10.726-3.875c6.287 2.538 2.2 9.656 2.2 9.656s2.302 3.274-3.33 5.833c-5.633 2.558-16.701.051-16.701.051.525 3.855.47 7.766-.166 11.604a3.564 3.564 0 01-2.573 2.683z" fill="#A6A6A6"/><path d="M388.103 76.783a10.925 10.925 0 00-4.419-.798 11.83 11.83 0 00-3.983.622 6.607 6.607 0 00-4.658 4.962 4.615 4.615 0 00.882 3.47h.062c-1.452-1.802-.695-4.6.809-6.101a10.03 10.03 0 016.629-2.456c1.559-.02 3.116.144 4.637.487.093-.03.124-.145.041-.186z" fill="#A6A6A6"/><path d="M380.219 101.813s-4.211-4.807-6.441-3.253c-2.231 1.554 1.348 8.806 4.232 9.531a2.838 2.838 0 003.62-1.927l-1.411-4.351z" fill="#F7A9A0"/><path d="M374.856 100.611v.072c2.075.581 3.258 2.269 4.15 4.061a1.576 1.576 0 00-1.153-.629 1.59 1.59 0 00-1.233.453.064.064 0 00-.016.088c.01.014.025.024.041.026.017.003.034 0 .048-.01a1.734 1.734 0 011.97.394 8.29 8.29 0 011.038 1.45c.104.166.415 0 .321-.155-.166-2.528-2.479-5.792-5.166-5.75z" fill="#263238"/><path d="M389.441 104.04a4.901 4.901 0 01-4.724-2.132 4.883 4.883 0 011.787-7.04 4.902 4.902 0 016.827 2.5 4.878 4.878 0 01-.039 3.743 4.887 4.887 0 01-2.678 2.618 5.288 5.288 0 01-1.173.311zm-1.203-9.055a4.229 4.229 0 00-3.483 5.514 4.235 4.235 0 007.6.934 4.223 4.223 0 00-1.099-5.68 4.235 4.235 0 00-3.018-.768zm12.075 6.216c-1.857.249-3.797-1.43-4.43-3.895a5.87 5.87 0 01.166-3.574 3.032 3.032 0 012.165-2.064 3.045 3.045 0 012.887.79 5.675 5.675 0 011.846 3.108c.664 2.61-.373 5.18-2.323 5.625a1.618 1.618 0 01-.311.01zm-1.691-8.94h-.249a2.632 2.632 0 00-1.722 1.678 5.232 5.232 0 00-.135 3.16c.581 2.269 2.344 3.781 3.942 3.367 1.597-.415 2.438-2.57 1.857-4.838a5.18 5.18 0 00-1.629-2.715 2.662 2.662 0 00-2.064-.652z" fill="#455A64"/><path d="M393.321 97.948l-.539-.383c.57-.787 2.022-2.02 3.495-1.036l-.352.55c-1.318-.881-2.552.797-2.604.87zm-20.83 6.579l-.632-.145c.062-.301.705-2.911 2.074-3.502 1.37-.59 9.979-1.916 10.374-1.968l.103.642c-2.5.394-9.201 1.492-10.186 1.927-.986.435-1.567 2.331-1.733 3.046z" fill="#455A64"/><path d="M393.767 120.937l-4.429 9.076-10.758-12.505-3.537 3.553s10.031 19.457 10.156 18.648l4.388-7.749 5.186 5.957.509-14.027-1.515-2.953z" fill="#EBEBEB"/><path d="M395.385 130.914c0-2.321.083-4.652 0-6.972 0-.073-.135-.125-.155 0-.612 2.196-.602 11.064-.758 13.178-.207-.249-4.792-5.253-4.844-5.18-.923 1.212-4.149 6.858-4.367 7.376-1.577-3.108-7.697-14.349-9.616-17.301a.085.085 0 00-.047-.03.087.087 0 00-.055.007.08.08 0 00-.043.095c1.359 3.243 9.439 18.389 9.574 18.358a90.337 90.337 0 004.596-8.195c.757 1.036 5.342 6.672 5.383 6.33.243-2.548.353-5.107.332-7.666z" fill="#263238"/><path d="M435.955 190.028c-3.807 5.429-14.17 6.475-39.999 11.52-3.579.705-15.311-23.165-11.535-24.107 4.761-1.192 23.495-4.766 24.896-4.859 11.836-.788 29.221 13.716 26.638 17.446z" fill="#F7A9A0"/><path d="M389.597 176.218s-10.954 1.658-16.431 4.3a39.127 39.127 0 00-14.108 12.286c-3.942 5.574-9.627 21.756-5.239 24.222 3.973 2.217 8.942-14.628 8.942-14.628s-7.904 16.338-2.635 18.13c5.27 1.792 9.928-18.068 9.928-18.068s-7.749 16.98-2.023 17.964c4.336.746 9.564-17.032 9.564-17.032s-6.556 14.639-2.137 15.603c4.886 1.036 10.747-15.054 10.747-15.054 11.639.55 17.406-3.947 21.13-7.635.903-.922-17.738-20.088-17.738-20.088z" fill="#F7A9A0"/><path d="M365.126 196.565c-1.037 1.886-2.023 3.792-2.842 5.76-.82 1.969-1.587 3.968-2.23 5.999a36.932 36.932 0 00-1.733 8.163c.83-4.89 3.683-11.986 4.513-13.954.83-1.969 1.545-3.979 2.375-5.937.021-.052-.052-.072-.083-.031zm7.179 2.849c-1.173 2.466-2.428 4.869-3.486 7.387-1.058 2.517-1.836 4.973-2.718 7.542-.072.197.063.166.135 0 .986-2.528 2.075-4.797 3.112-7.314 1.038-2.518 1.93-5.087 3.029-7.563 0-.062-.062-.114-.072-.052zm6.597 1.347a60.126 60.126 0 00-4.46 11.696c-.063.197.103.145.166-.062 1.41-3.916 2.489-6.993 4.419-11.572.031-.062-.083-.145-.125-.062z" fill="#263238"/><path d="M387.315 176.218l22.634 25.206s22.894-5.242 26.266-11.106c2.22-3.864-15.021-19.497-28.008-17.674l-20.892 3.574z" fill="#4AB45E"/><path opacity=".1" d="M407.408 191.934c-.1.639-.292 1.26-.571 1.844a6.437 6.437 0 01-1.037 1.637 6.828 6.828 0 01.571-1.844 7.104 7.104 0 011.037-1.637zm15.726-1.419a7.052 7.052 0 00-.571 1.854 6.712 6.712 0 001.038-1.647c.28-.584.475-1.205.581-1.844a7.018 7.018 0 00-1.048 1.637zm-11.214-5.284a6.462 6.462 0 00-1.846-.569 7.46 7.46 0 003.485 1.595 6.78 6.78 0 00-1.639-1.026zm11.214-6.931c.217.61.521 1.186.902 1.71a7.482 7.482 0 00-1.338-3.595 6.75 6.75 0 00.436 1.885zm-22.894 5.45c.213.612.517 1.188.902 1.709a7.486 7.486 0 00-1.338-3.595c.054.646.201 1.281.436 1.886zm-9.336-5.968a6.938 6.938 0 001.712-.901 6.754 6.754 0 00-1.888.425 7.112 7.112 0 00-1.712.901 6.727 6.727 0 001.888-.425zm19.274-2.072a6.914 6.914 0 001.711-.901 6.877 6.877 0 00-1.888.425 7.364 7.364 0 00-1.711.901 7.056 7.056 0 001.867-.435l.021.01zm7.137 22.129a6.766 6.766 0 001.711-.901 6.7 6.7 0 00-1.888.435 6.595 6.595 0 00-1.711.902 6.904 6.904 0 001.867-.446l.021.01zm17.012-12.556a7.883 7.883 0 00-1.359.383 6.807 6.807 0 00-1.712.902 7.197 7.197 0 001.888-.435 6.656 6.656 0 001.338-.653l-.155-.197z" fill="#000"/><path d="M423.704 176.705a22.572 22.572 0 00-15.56-4.144c-.062 0-.062.114 0 .114 5.685-.155 13.351 2.808 15.498 4.092.073.073.125-.02.062-.062zm-7.562 20.471c-2.344-2.9-4.834-5.667-7.344-8.433-2.51-2.766-5-5.542-7.573-8.288-1.452-1.523-2.894-3.108-4.398-4.537a.051.051 0 00-.034-.021.056.056 0 00-.038.01.056.056 0 00-.021.034.054.054 0 00.01.039c2.345 2.89 4.824 5.677 7.262 8.454 2.437 2.776 4.999 5.553 7.541 8.288 1.431 1.543 2.894 3.108 4.398 4.548.125.103.26.01.197-.094z" fill="#263238"/><path d="M387.273 175.897a31.15 31.15 0 014.243-.974c1.421-.259 2.863-.508 4.295-.735 2.852-.456 8.848-1.751 14.118-1.741.062 0-.239.29-.301.28-2.51-.135-20.487 3.439-21.96 3.543.051.104.114.197.155.3a.087.087 0 01.022.061.09.09 0 01-.027.059.085.085 0 01-.061.022.082.082 0 01-.058-.028c-.187-.124-.312-.279-.488-.414a.213.213 0 01-.09-.207.209.209 0 01.152-.166zM262.14 236.845l4.346 10.505-4.346 1.803-4.378-10.578-7.188 5.574V214.56l20.736 20.928-9.17 1.357zm-11.276-26.211a3.624 3.624 0 01-.519-1.968 3.58 3.58 0 01.519-1.958 3.75 3.75 0 01.519 1.958 3.81 3.81 0 01-.519 1.968zm-3.413 1.399a3.695 3.695 0 01-1.763-1.036 3.634 3.634 0 01-1.038-1.751c.672.172 1.28.531 1.753 1.036a3.76 3.76 0 011.048 1.751zm-1.4 3.377a3.82 3.82 0 01-1.971.518 3.762 3.762 0 01-1.961-.518 3.58 3.58 0 011.961-.518 3.73 3.73 0 011.971.518zm1.4 3.377a3.78 3.78 0 01-1.037 1.751 3.67 3.67 0 01-1.753 1.036 3.6 3.6 0 011.037-1.751 3.706 3.706 0 011.753-1.036zm8.164-3.377a3.663 3.663 0 011.961-.518 3.61 3.61 0 011.97.518 3.98 3.98 0 01-3.931 0zm-1.4-3.377a3.759 3.759 0 011.037-1.762 3.68 3.68 0 011.763-1.036 3.653 3.653 0 01-1.037 1.751 3.703 3.703 0 01-1.763 1.047z" fill="#263238"/><path d="M57.692 311.727a69.47 69.47 0 00-2.251 12.753c.114.218.093 1.036 0 .787 0 .695-1.038.57-1.038-.114v-1.346c-2.49-3.108-6.11-5.046-9.045-7.739a16.863 16.863 0 01-4.948-7.874c-2.427-8.36-.156-17.208-3.112-25.548-2.51-7.189-7.023-13.468-10.85-19.943-4.036-6.889-7.003-14.12-7.262-22.191-.239-6.216.498-14.4 5.187-19.031 4.99-4.911 11.182-1.233 15.01 3.108 11.079 12.701 16.203 28.759 18.278 45.17 1.14 9.085 2.334 18.223 2.074 27.391a73.717 73.717 0 01-2.043 14.577z" fill="#4AB45E"/><path d="M55.482 327.816c.61-8.572.51-17.179-.3-25.734v-.093c.134-6.962.694-13.893.414-20.855a123.207 123.207 0 00-3.112-22.367c0-.083-.155-.063-.135 0a146.022 146.022 0 012.418 21.87c.145 3.936.114 7.863-.094 11.8-.062 1.274-.187 2.559-.27 3.843a137.587 137.587 0 00-20.746-54.773c-.145-.228-.55 0-.405.248a143.206 143.206 0 0116.867 40.612c-5.332-9.863-13.381-17.965-19.346-27.444 0 0-.125 0-.093.052 5.456 10.567 14.346 18.886 19.979 29.329a149.696 149.696 0 012.386 12.815 144.054 144.054 0 011.286 17.799c-3.247-6.061-6.618-11.852-9.274-18.265-.073-.176-.322-.052-.26.114 2.262 6.662 5.302 13.831 9.544 19.508 0 4.216-.093 8.433-.342 12.639-.664 11.241-2.593 22.326-3.475 33.525a.26.26 0 00.508.052 255.707 255.707 0 004.45-34.675z" fill="#263238"/><path d="M43.532 241.155c0-.073-.145 0-.124.062 2.074 5.677 3.215 11.396 4.71 17.239a.234.234 0 00.416.12.232.232 0 00.05-.172c-.654-5.916-2.76-11.8-5.052-17.249z" fill="#263238"/><path d="M95.72 264.941a83.672 83.672 0 01-4.73 9.697c-3.693 6.713-7.552 12.867-8.298 20.72-.312 3.491-.426 6.993-1.484 10.36a30.988 30.988 0 01-4.15 8.102c-4.003 5.843-9.024 10.867-12.738 16.918a71.134 71.134 0 00-8.464 20.388c-.094.394-.706.29-.623-.104a.247.247 0 000-.093.093.093 0 010-.083c-.591-16.752.747-33.639 5.872-49.728a172.367 172.367 0 018.132-20.72c2.739-5.822 6.152-11.396 10.965-15.768 3.112-2.807 9.896-8.132 14.346-5.314 2.168 1.398 2.013 3.543 1.172 5.625z" fill="#4AB45E"/><path d="M78.864 302.952a138.746 138.746 0 01-9.751 13.996c-1.629 2.124-3.278 4.217-4.896 6.341-.768 1.036-1.629 1.999-2.334 3.108.446-1.762.881-3.523 1.327-5.284 2.168-8.464 4.243-17.011 7.47-25.154a169.753 169.753 0 0111.648-22.792c.115-.197-.197-.332-.31-.145-3.548 5.822-7.148 11.634-10.125 17.778a90.953 90.953 0 00-4.295 10.546 163.512 163.512 0 015.716-22.543c0-.062-.073-.114-.104 0a77.05 77.05 0 00-5.954 23.341 142.36 142.36 0 00-2.012 6.589c-2.646 9.376-4.97 18.845-7.117 28.355-.042-6.253.5-12.496 1.619-18.648a.117.117 0 00-.042-.058.117.117 0 00-.067-.022.117.117 0 00-.068.022.117.117 0 00-.041.058 58.81 58.81 0 00-1.629 19.684c-.809 3.619-1.6 7.235-2.375 10.847-1.65 7.729-3.672 15.592-4.637 23.434a.158.158 0 10.311.052c1.151-4.227 1.846-8.609 2.78-12.888.934-4.278 1.92-8.588 2.925-12.867a1218.352 1218.352 0 014.534-18.648c1.037-2.279 3.05-4.299 4.553-6.216 1.65-2.072 3.31-4.144 4.917-6.319a95.275 95.275 0 008.07-12.432c.084-.135-.061-.249-.113-.135z" fill="#263238"/><path d="M79.58 295.762a87.192 87.192 0 00-9.544 15.146c0 .063.073.135.114.073 3.206-5.025 6.37-10.091 9.575-15.126.052-.083-.094-.155-.145-.093z" fill="#263238"/><path d="M8.128 280.833c2.178 3.74 4.658 8.226 3.724 12.722-.591 2.839-2.676 5.18-3.05 8.05-.84 6.403 5.55 10.63 10.166 13.655 11.525 7.552 27.323 14.276 29.419 29.691.072.55 1.037.415.954-.124a.455.455 0 000-.103v-.083a58.826 58.826 0 00-.218-23.549c-1.711-7.946-5.186-15.084-9.284-22.066-6.93-11.811-14.273-23.911-24.76-32.966-2.802-2.476-8.797-7.003-11.1-1.347-2.251 5.491 1.514 11.562 4.149 16.12z" fill="#4AB45E"/><path d="M18.698 305.874c7.635 8.288 19.782 12.887 26.36 22.139a92.752 92.752 0 00-20.26-38.001.298.298 0 01.036-.388.303.303 0 01.39-.026A74.9 74.9 0 0141.82 313.54a107.444 107.444 0 00-7.127-18.213.194.194 0 01-.02-.15.2.2 0 01.035-.069.204.204 0 01.13-.075.2.2 0 01.197.097 69.358 69.358 0 017.677 20.472c8.661 20.947 9.47 45.511 7.655 67.588 0 .311-.508.321-.498 0 .498-17.394.218-35.099-3.962-52.09-.083-.362-.187-.704-.27-1.036-7.158-9.966-19.243-14.576-26.97-24.035-.167-.114-.053-.238.03-.155z" fill="#263238"/><path d="M16.925 298.808c4.014 3.667 7.956 7.428 11.97 11.106v.072a58.423 58.423 0 01-12.157-10.94c-.187-.186.02-.414.187-.238zm-.633-15.944a124.663 124.663 0 0012.002 16.483c0 .072 0 .165-.104.103a57.852 57.852 0 01-12.116-16.462c-.062-.134.135-.259.218-.124z" fill="#263238"/><path d="M34.341 398.761h35.125l-4.73-47.19h-24.98l-5.415 47.19z" fill="#455A64"/><path d="M38.875 359.238h26.628l-.768-7.667H39.756l-.881 7.667z" fill="#263238"/><path d="M35.451 353.871h32.925v-7.531H35.451v7.531z" fill="#455A64"/></g><defs><clipPath id="clip0_30_5"><path fill="#fff" d="M0 0h675v400H0z"/></clipPath></defs></svg>