<svg width="45" height="45" fill="none" xmlns="http://www.w3.org/2000/svg"><path fill-rule="evenodd" clip-rule="evenodd" d="M22.5 45C34.926 45 45 34.926 45 22.5S34.926 0 22.5 0 0 10.074 0 22.5 10.074 45 22.5 45z" fill="#4AB45E"/><g clip-path="url(#clip0_455_209)" fill="#fff"><path d="M28.656 14H17.344A2.347 2.347 0 0015 16.344v11.312A2.346 2.346 0 0017.344 30h11.312A2.346 2.346 0 0031 27.656V16.344A2.346 2.346 0 0028.656 14zm1.407 13.656c0 .776-.631 1.407-1.407 1.407H17.344a1.408 1.408 0 01-1.407-1.407V16.344c0-.776.631-1.407 1.407-1.407h11.312c.776 0 1.407.631 1.407 1.407v11.312z"/><path d="M28.156 15.906a.939.939 0 000 1.875.939.939 0 000-1.875zM23 17.781A4.224 4.224 0 0018.781 22 4.224 4.224 0 0023 26.219 4.224 4.224 0 0027.219 22 4.224 4.224 0 0023 17.781zm0 7.5A3.285 3.285 0 0119.719 22 3.285 3.285 0 0123 18.719 3.285 3.285 0 0126.281 22 3.285 3.285 0 0123 25.281z"/></g><defs><clipPath id="clip0_455_209"><path fill="#fff" transform="translate(15 14)" d="M0 0h16v16H0z"/></clipPath></defs></svg>