<svg width="524" height="361" fill="none" xmlns="http://www.w3.org/2000/svg"><g opacity=".1"><mask id="a" style="mask-type:alpha" maskUnits="userSpaceOnUse" x="0" y="0" width="524" height="361"><path d="M523.474 332.78l-34.786 27.72H.5V.5h487.913l35.061 332.28z" fill="url(#paint0_linear_8_104)" stroke="#6246E5"/></mask><g mask="url(#a)" stroke="#6246E5"><path d="M236.505 453.92c-69.333 0-125.54-56.285-125.54-125.718s56.207-125.718 125.54-125.718 125.539 56.285 125.539 125.718S305.838 453.92 236.505 453.92z"/><path d="M249.772 458.902c-77.576 0-140.465-62.977-140.465-140.665 0-77.687 62.889-140.664 140.465-140.664s140.465 62.977 140.465 140.664c0 77.688-62.889 140.665-140.465 140.665z"/><path d="M260.552 463.885c-84.904 0-153.733-68.926-153.733-153.951 0-85.025 68.829-153.951 153.733-153.951 84.903 0 153.732 68.926 153.732 153.951 0 85.025-68.829 153.951-153.732 153.951z"/><path d="M276.307 467.206c-91.315 0-165.341-74.13-165.341-165.576s74.026-165.576 165.341-165.576c91.315 0 165.341 74.13 165.341 165.576s-74.026 165.576-165.341 165.576z"/><path d="M291.647 470.527c-97.497 0-176.535-79.149-176.535-176.786s79.038-176.786 176.535-176.786c97.498 0 176.536 79.149 176.536 176.786s-79.038 176.786-176.536 176.786z"/><path d="M309.061 474.68c-107.115 0-193.949-86.957-193.949-194.224 0-107.268 86.834-194.225 193.949-194.225 107.114 0 193.949 86.957 193.949 194.225 0 107.267-86.835 194.224-193.949 194.224z"/></g></g><defs><linearGradient id="paint0_linear_8_104" x1="475.147" y1="256.035" x2="-.282" y2=".524" gradientUnits="userSpaceOnUse"><stop stop-color="#747DEF"/><stop offset="1" stop-color="#5E3BE1"/></linearGradient></defs></svg>